<?xml version="1.0" encoding="UTF-8" standalone="no"?>
<!-- Created with Inkscape (http://www.inkscape.org/) -->

<svg
   xmlns:dc="http://purl.org/dc/elements/1.1/"
   xmlns:cc="http://creativecommons.org/ns#"
   xmlns:rdf="http://www.w3.org/1999/02/22-rdf-syntax-ns#"
   xmlns:svg="http://www.w3.org/2000/svg"
   xmlns="http://www.w3.org/2000/svg"
   xmlns:sodipodi="http://sodipodi.sourceforge.net/DTD/sodipodi-0.dtd"
   xmlns:inkscape="http://www.inkscape.org/namespaces/inkscape"
   width="1620"
   height="1080"
   id="svg2"
   version="1.1"
   inkscape:version="0.47pre2 r22153"
   sodipodi:docname="light_meter_box.svg">
  <defs
     id="defs4">
    <inkscape:perspective
       sodipodi:type="inkscape:persp3d"
       inkscape:vp_x="0 : 526.18109 : 1"
       inkscape:vp_y="0 : 1000 : 0"
       inkscape:vp_z="744.09448 : 526.18109 : 1"
       inkscape:persp3d-origin="372.04724 : 350.78739 : 1"
       id="perspective10" />
    <inkscape:perspective
       id="perspective3627"
       inkscape:persp3d-origin="0.5 : 0.33333333 : 1"
       inkscape:vp_z="1 : 0.5 : 1"
       inkscape:vp_y="0 : 1000 : 0"
       inkscape:vp_x="0 : 0.5 : 1"
       sodipodi:type="inkscape:persp3d" />
    <inkscape:perspective
       id="perspective3656"
       inkscape:persp3d-origin="0.5 : 0.33333333 : 1"
       inkscape:vp_z="1 : 0.5 : 1"
       inkscape:vp_y="0 : 1000 : 0"
       inkscape:vp_x="0 : 0.5 : 1"
       sodipodi:type="inkscape:persp3d" />
    <inkscape:perspective
       id="perspective3805"
       inkscape:persp3d-origin="0.5 : 0.33333333 : 1"
       inkscape:vp_z="1 : 0.5 : 1"
       inkscape:vp_y="0 : 1000 : 0"
       inkscape:vp_x="0 : 0.5 : 1"
       sodipodi:type="inkscape:persp3d" />
  </defs>
  <sodipodi:namedview
     id="base"
     pagecolor="#ffffff"
     bordercolor="#666666"
     borderopacity="1.0"
     inkscape:pageopacity="0.0"
     inkscape:pageshadow="2"
     inkscape:zoom="1.6672637"
     inkscape:cx="254.95892"
     inkscape:cy="59.968594"
     inkscape:document-units="in"
     inkscape:current-layer="layer1"
     showgrid="true"
     inkscape:window-width="1440"
     inkscape:window-height="783"
     inkscape:window-x="1920"
     inkscape:window-y="22"
     inkscape:window-maximized="0"
     units="in"
     showguides="true"
     inkscape:guide-bbox="true"
     inkscape:snap-global="true"
     showborder="true"
     inkscape:showpageshadow="false">
    <inkscape:grid
       type="xygrid"
       id="grid2845"
       empspacing="4"
       visible="true"
       enabled="true"
       snapvisiblegridlinesonly="true" />
  </sodipodi:namedview>
  <metadata
     id="metadata7">
    <rdf:RDF>
      <cc:Work
         rdf:about="">
        <dc:format>image/svg+xml</dc:format>
        <dc:type
           rdf:resource="http://purl.org/dc/dcmitype/StillImage" />
        <dc:title></dc:title>
      </cc:Work>
    </rdf:RDF>
  </metadata>
  <g
     inkscape:label="Layer 1"
     inkscape:groupmode="layer"
     id="layer1"
     transform="translate(0,27.641)">
    <rect
       style="fill:#ffffff;stroke:#000000;stroke-width:0;stroke-miterlimit:4;stroke-opacity:1;stroke-dasharray:none"
       id="rect3180"
       width="223.64999"
       height="128.25"
       x="5.1757816e-08"
       y="924.10901" />
    <path
       style="fill:#ffffff;stroke:#000000;stroke-width:0;stroke-miterlimit:4;stroke-opacity:1"
       d="m -31.65625,1.95275 0,5.625 12.15625,0 0,8.78125 -4.5,0 0,9 4.5,0 0,14.40625 11.6875,0 0,-14.40625 4.5,0 0,-9 -4.5,0 0,-8.78125 12.15625,0 0,-5.625 -12.15625,0 -11.6875,0 -12.15625,0 z"
       id="rect3954" />
    <path
       id="path3968"
       d="m 56.52,924.109 0,5.625 12.15625,0 0,8.78125 -4.5,0 0,9 4.5,0 0,14.40625 11.6875,0 0,-14.40625 4.5,0 0,-9 -4.5,0 0,-8.78125 12.15625,0 0,-5.625 -12.15625,0 -11.6875,0 -12.15625,0 z"
       style="fill:#ffffff;stroke:#000000;stroke-width:0;stroke-miterlimit:4;stroke-opacity:1" />
    <path
       style="fill:#ffffff;stroke:#000000;stroke-width:0;stroke-miterlimit:4;stroke-opacity:1"
       d="m 0,984.859 5.625,0 0,-12.15625 8.78125,0 0,4.5 9,0 0,-4.5 14.40625,0 0,-11.6875 -14.40625,0 0,-4.5 -9,0 0,4.5 -8.78125,0 0,-12.15625 -5.625,0 0,12.15625 0,11.6875 0,12.15625 z"
       id="path3970" />
    <path
       id="path3972"
       d="m 0,1027.609 5.625,0 0,-12.1563 8.78125,0 0,4.5 9,0 0,-4.5 14.40625,0 0,-11.6875 -14.40625,0 0,-4.5 -9,0 0,4.5 -8.78125,0 0,-12.1562 -5.625,0 0,12.1562 0,11.6875 0,12.1563 z"
       style="fill:#ffffff;stroke:#000000;stroke-width:0;stroke-miterlimit:4;stroke-opacity:1" />
    <path
       style="fill:#ffffff;stroke:#000000;stroke-width:0;stroke-miterlimit:4;stroke-opacity:1"
       d="m 56.52,1052.359 0,-5.625 12.15625,0 0,-8.7813 -4.5,0 0,-9 4.5,0 0,-14.4062 11.6875,0 0,14.4062 4.5,0 0,9 -4.5,0 0,8.7813 12.15625,0 0,5.625 -12.15625,0 -11.6875,0 -12.15625,0 z"
       id="path3974" />
    <path
       id="path3976"
       d="m 131.13,1052.359 0,-5.625 12.15625,0 0,-8.7813 -4.5,0 0,-9 4.5,0 0,-14.4062 11.6875,0 0,14.4062 4.5,0 0,9 -4.5,0 0,8.7813 12.15625,0 0,5.625 -12.15625,0 -11.6875,0 -12.15625,0 z"
       style="fill:#ffffff;stroke:#000000;stroke-width:0;stroke-miterlimit:4;stroke-opacity:1" />
    <path
       style="fill:#ffffff;stroke:#000000;stroke-width:0;stroke-miterlimit:4;stroke-opacity:1"
       d="m 223.65,991.609 -5.625,0 0,12.1562 -8.78125,0 0,-4.5 -9,0 0,4.5 -14.40625,0 0,11.6875 14.40625,0 0,4.5 9,0 0,-4.5 8.78125,0 0,12.1563 5.625,0 0,-12.1563 0,-11.6875 0,-12.1562 z"
       id="path3978" />
    <path
       id="path3980"
       d="m 223.65,948.859 -5.625,0 0,12.15625 -8.78125,0 0,-4.5 -9,0 0,4.5 -14.40625,0 0,11.6875 14.40625,0 0,4.5 9,0 0,-4.5 8.78125,0 0,12.15625 5.625,0 0,-12.15625 0,-11.6875 0,-12.15625 z"
       style="fill:#ffffff;stroke:#000000;stroke-width:0;stroke-miterlimit:4;stroke-opacity:1" />
    <path
       style="fill:#ffffff;stroke:#000000;stroke-width:0;stroke-miterlimit:4;stroke-opacity:1"
       d="m 131.13,924.109 0,5.625 12.15625,0 0,8.78125 -4.5,0 0,9 4.5,0 0,14.40625 11.6875,0 0,-14.40625 4.5,0 0,-9 -4.5,0 0,-8.78125 12.15625,0 0,-5.625 -12.15625,0 -11.6875,0 -12.15625,0 z"
       id="path3982" />
    <rect
       style="fill:#ffffff;stroke:#000000;stroke-width:0;stroke-miterlimit:4;stroke-opacity:1;stroke-dasharray:none"
       id="rect3984"
       width="95.400002"
       height="128.25"
       x="278.5"
       y="924.10901" />
    <path
       style="fill:#ffffff;stroke:#000000;stroke-width:0;stroke-miterlimit:4;stroke-opacity:1"
       d="M 256 976.5 L 256 1012.5 L 278.5 1012.5 L 278.5 976.5 L 256 976.5 z M 267.25 988.65625 C 270.48087 988.65625 273.09375 991.26913 273.09375 994.5 C 273.09375 997.73087 270.48087 1000.3437 267.25 1000.3438 C 264.01913 1000.3438 261.40625 997.73087 261.40625 994.5 C 261.40625 991.26913 264.01913 988.65625 267.25 988.65625 z "
       transform="translate(0,-27.641)"
       id="rect3986" />
    <path
       id="path4007"
       d="m 256,991.609 0,36 22.5,0 0,-36 -22.5,0 z m 11.25,12.1562 c 3.23087,0 5.84375,2.6129 5.84375,5.8438 0,3.2309 -2.61288,5.8437 -5.84375,5.8438 -3.23087,0 -5.84375,-2.6129 -5.84375,-5.8438 0,-3.2309 2.61288,-5.8438 5.84375,-5.8438 z"
       style="fill:#ffffff;stroke:#000000;stroke-width:0;stroke-miterlimit:4;stroke-opacity:1" />
    <path
       id="path4009"
       d="m 373.9,948.859 0,36 22.5,0 0,-36 -22.5,0 z m 11.25,12.15625 c 3.23087,0 5.84375,2.61288 5.84375,5.84375 0,3.23087 -2.61288,5.8437 -5.84375,5.8438 -3.23087,0 -5.84375,-2.61293 -5.84375,-5.8438 0,-3.23087 2.61288,-5.84375 5.84375,-5.84375 z"
       style="fill:#ffffff;stroke:#000000;stroke-width:0;stroke-miterlimit:4;stroke-opacity:1" />
    <path
       style="fill:#ffffff;stroke:#000000;stroke-width:0;stroke-miterlimit:4;stroke-opacity:1"
       d="m 373.9,991.609 0,36 22.5,0 0,-36 -22.5,0 z m 11.25,12.1562 c 3.23087,0 5.84375,2.6129 5.84375,5.8438 0,3.2309 -2.61288,5.8437 -5.84375,5.8438 -3.23087,0 -5.84375,-2.6129 -5.84375,-5.8438 0,-3.2309 2.61288,-5.8438 5.84375,-5.8438 z"
       id="path4011" />
    <rect
       style="fill:#ffffff;stroke:#000000;stroke-width:0;stroke-miterlimit:4;stroke-opacity:1;stroke-dasharray:none"
       id="rect4013"
       width="212.39999"
       height="95.400002"
       x="5.625"
       y="796.35901" />
    <path
       id="path4015"
       d="m 92.52,891.75901 -36,0 0,22.5 36,0 0,-22.5 z m -12.15625,11.25 c 0,3.23087 -2.61288,5.84375 -5.84375,5.84375 -3.23087,0 -5.8437,-2.61288 -5.8438,-5.84375 0,-3.23087 2.61293,-5.84375 5.8438,-5.84375 3.23087,0 5.84375,2.61288 5.84375,5.84375 z"
       style="fill:#ffffff;stroke:#000000;stroke-width:0;stroke-miterlimit:4;stroke-opacity:1" />
    <path
       style="fill:#ffffff;stroke:#000000;stroke-width:0;stroke-miterlimit:4;stroke-opacity:1"
       d="m 167.13,891.75901 -36,0 0,22.5 36,0 0,-22.5 z m -12.1562,11.25 c 0,3.23087 -2.6129,5.84375 -5.8438,5.84375 -3.2309,0 -5.8437,-2.61288 -5.8438,-5.84375 0,-3.23087 2.6129,-5.84375 5.8438,-5.84375 3.2309,0 5.8438,2.61288 5.8438,5.84375 z"
       id="path4017" />
    <path
       style="fill:#ffffff;stroke:#000000;stroke-width:0;stroke-miterlimit:4;stroke-opacity:1"
       d="m 92.52,773.85901 -36,0 0,22.5 36,0 0,-22.5 z m -12.15625,11.25 c 0,3.23087 -2.61288,5.84375 -5.84375,5.84375 -3.23087,0 -5.8437,-2.61288 -5.8438,-5.84375 0,-3.23087 2.61293,-5.84375 5.8438,-5.84375 3.23087,0 5.84375,2.61288 5.84375,5.84375 z"
       id="path4019" />
    <path
       id="path4021"
       d="m 167.13,773.85901 -36,0 0,22.5 36,0 0,-22.5 z m -12.1562,11.25 c 0,3.23087 -2.6129,5.84375 -5.8438,5.84375 -3.2309,0 -5.8437,-2.61288 -5.8438,-5.84375 0,-3.23087 2.6129,-5.84375 5.8438,-5.84375 3.2309,0 5.8438,2.61288 5.8438,5.84375 z"
       style="fill:#ffffff;stroke:#000000;stroke-width:0;stroke-miterlimit:4;stroke-opacity:1" />
    <path
       sodipodi:type="arc"
       style="fill:#ffffff;stroke:#000000;stroke-width:0;stroke-miterlimit:4;stroke-opacity:1;stroke-dasharray:none"
       id="path4023"
       sodipodi:cx="-84"
       sodipodi:cy="908"
       sodipodi:rx="20"
       sodipodi:ry="20"
       d="m -64,908 a 20,20 0 1 1 -40,0 20,20 0 1 1 40,0 z"
       transform="matrix(1.125,0,0,1.125,401,-2.7110085)" />
    <path
       sodipodi:type="arc"
       style="fill:#ffffff;stroke:#000000;stroke-width:0;stroke-miterlimit:4;stroke-opacity:1;stroke-dasharray:none"
       id="path4025"
       sodipodi:cx="-64"
       sodipodi:cy="852"
       sodipodi:rx="16"
       sodipodi:ry="12"
       d="m -48,852 a 16,12 0 1 1 -32,0 16,12 0 1 1 32,0 z"
       transform="matrix(0.50625,0,0,0.675,392.3,457.18898)" />
    <rect
       style="fill:#ffffff;fill-opacity:1;stroke:#000000;stroke-width:0;stroke-miterlimit:4;stroke-opacity:1;stroke-dasharray:none"
       id="rect4027"
       width="91.529999"
       height="58.77"
       x="280.0567"
       y="931.32605" />
    <rect
       style="fill:#ffffff;fill-opacity:1;stroke:#000000;stroke-width:0;stroke-miterlimit:4;stroke-opacity:1;stroke-dasharray:none"
       id="rect4029"
       width="18"
       height="28.889999"
       x="350.89999"
       y="1017.844" />
    <rect
       style="fill:#ffffff;fill-opacity:1;stroke:#000000;stroke-width:0;stroke-miterlimit:4;stroke-opacity:1;stroke-dasharray:none"
       id="rect4031"
       width="52.110001"
       height="55.889999"
       x="280.44501"
       y="990.84399" />
  </g>
</svg>
