<?xml version="1.0" encoding="UTF-8" standalone="no"?>
<!-- Created with Inkscape (http://www.inkscape.org/) -->

<svg
   xmlns:dc="http://purl.org/dc/elements/1.1/"
   xmlns:cc="http://creativecommons.org/ns#"
   xmlns:rdf="http://www.w3.org/1999/02/22-rdf-syntax-ns#"
   xmlns:svg="http://www.w3.org/2000/svg"
   xmlns="http://www.w3.org/2000/svg"
   xmlns:sodipodi="http://sodipodi.sourceforge.net/DTD/sodipodi-0.dtd"
   xmlns:inkscape="http://www.inkscape.org/namespaces/inkscape"
   width="1620"
   height="1080"
   id="svg2"
   version="1.1"
   inkscape:version="0.47pre2 r22153"
   sodipodi:docname="light_meter_box_cut.svg">
  <defs
     id="defs4">
    <inkscape:perspective
       sodipodi:type="inkscape:persp3d"
       inkscape:vp_x="0 : 526.18109 : 1"
       inkscape:vp_y="0 : 1000 : 0"
       inkscape:vp_z="744.09448 : 526.18109 : 1"
       inkscape:persp3d-origin="372.04724 : 350.78739 : 1"
       id="perspective10" />
    <inkscape:perspective
       id="perspective3627"
       inkscape:persp3d-origin="0.5 : 0.33333333 : 1"
       inkscape:vp_z="1 : 0.5 : 1"
       inkscape:vp_y="0 : 1000 : 0"
       inkscape:vp_x="0 : 0.5 : 1"
       sodipodi:type="inkscape:persp3d" />
    <inkscape:perspective
       id="perspective3656"
       inkscape:persp3d-origin="0.5 : 0.33333333 : 1"
       inkscape:vp_z="1 : 0.5 : 1"
       inkscape:vp_y="0 : 1000 : 0"
       inkscape:vp_x="0 : 0.5 : 1"
       sodipodi:type="inkscape:persp3d" />
    <inkscape:perspective
       id="perspective3805"
       inkscape:persp3d-origin="0.5 : 0.33333333 : 1"
       inkscape:vp_z="1 : 0.5 : 1"
       inkscape:vp_y="0 : 1000 : 0"
       inkscape:vp_x="0 : 0.5 : 1"
       sodipodi:type="inkscape:persp3d" />
  </defs>
  <sodipodi:namedview
     id="base"
     pagecolor="#ffffff"
     bordercolor="#666666"
     borderopacity="1.0"
     inkscape:pageopacity="0.0"
     inkscape:pageshadow="2"
     inkscape:zoom="0.29473336"
     inkscape:cx="50.033918"
     inkscape:cy="337.2784"
     inkscape:document-units="in"
     inkscape:current-layer="layer1"
     showgrid="true"
     inkscape:window-width="1440"
     inkscape:window-height="783"
     inkscape:window-x="1920"
     inkscape:window-y="22"
     inkscape:window-maximized="0"
     units="in"
     showguides="true"
     inkscape:guide-bbox="true"
     inkscape:snap-global="true"
     showborder="true"
     inkscape:showpageshadow="false">
    <inkscape:grid
       type="xygrid"
       id="grid2845"
       empspacing="4"
       visible="true"
       enabled="true"
       snapvisiblegridlinesonly="true" />
  </sodipodi:namedview>
  <metadata
     id="metadata7">
    <rdf:RDF>
      <cc:Work
         rdf:about="">
        <dc:format>image/svg+xml</dc:format>
        <dc:type
           rdf:resource="http://purl.org/dc/dcmitype/StillImage" />
        <dc:title></dc:title>
      </cc:Work>
    </rdf:RDF>
  </metadata>
  <g
     inkscape:label="Layer 1"
     inkscape:groupmode="layer"
     id="layer1"
     transform="translate(0,27.641)">
    <path
       style="fill:#ffffff;stroke:#000000;stroke-width:0;stroke-miterlimit:4;stroke-opacity:1;stroke-dasharray:none"
       d="M 0 951.75 L 0 976.5 L 5.625 976.5 L 5.625 988.65625 L 14.40625 988.65625 L 14.40625 984.15625 L 23.40625 984.15625 L 23.40625 988.65625 L 37.8125 988.65625 L 37.8125 1000.3438 L 23.40625 1000.3438 L 23.40625 1004.8438 L 14.40625 1004.8438 L 14.40625 1000.3438 L 5.625 1000.3438 L 5.625 1012.5 L 0 1012.5 L 0 1019.25 L 5.625 1019.25 L 5.625 1031.4062 L 14.40625 1031.4062 L 14.40625 1026.9062 L 23.40625 1026.9062 L 23.40625 1031.4062 L 37.8125 1031.4062 L 37.8125 1043.0938 L 23.40625 1043.0938 L 23.40625 1047.5938 L 14.40625 1047.5938 L 14.40625 1043.0938 L 5.625 1043.0938 L 5.625 1055.25 L 0 1055.25 L 0 1080 L 56.53125 1080 L 56.53125 1074.375 L 68.6875 1074.375 L 68.6875 1065.5938 L 64.1875 1065.5938 L 64.1875 1056.5938 L 68.6875 1056.5938 L 68.6875 1042.1875 L 80.375 1042.1875 L 80.375 1056.5938 L 84.875 1056.5938 L 84.875 1065.5938 L 80.375 1065.5938 L 80.375 1074.375 L 92.53125 1074.375 L 92.53125 1080 L 131.125 1080 L 131.125 1074.375 L 143.28125 1074.375 L 143.28125 1065.5938 L 138.78125 1065.5938 L 138.78125 1056.5938 L 143.28125 1056.5938 L 143.28125 1042.1875 L 154.96875 1042.1875 L 154.96875 1056.5938 L 159.46875 1056.5938 L 159.46875 1065.5938 L 154.96875 1065.5938 L 154.96875 1074.375 L 167.125 1074.375 L 167.125 1080 L 223.65625 1080 L 223.65625 1055.25 L 218.03125 1055.25 L 218.03125 1043.0938 L 209.25 1043.0938 L 209.25 1047.5938 L 200.25 1047.5938 L 200.25 1043.0938 L 185.84375 1043.0938 L 185.84375 1031.4062 L 200.25 1031.4062 L 200.25 1026.9062 L 209.25 1026.9062 L 209.25 1031.4062 L 218.03125 1031.4062 L 218.03125 1019.25 L 223.65625 1019.25 L 223.65625 1012.5 L 218.03125 1012.5 L 218.03125 1000.3438 L 209.25 1000.3438 L 209.25 1004.8438 L 200.25 1004.8438 L 200.25 1000.3438 L 185.84375 1000.3438 L 185.84375 988.65625 L 200.25 988.65625 L 200.25 984.15625 L 209.25 984.15625 L 209.25 988.65625 L 218.03125 988.65625 L 218.03125 976.5 L 223.65625 976.5 L 223.65625 951.75 L 167.125 951.75 L 167.125 957.375 L 154.96875 957.375 L 154.96875 966.15625 L 159.46875 966.15625 L 159.46875 975.15625 L 154.96875 975.15625 L 154.96875 989.5625 L 143.28125 989.5625 L 143.28125 975.15625 L 138.78125 975.15625 L 138.78125 966.15625 L 143.28125 966.15625 L 143.28125 957.375 L 131.125 957.375 L 131.125 951.75 L 92.53125 951.75 L 92.53125 957.375 L 80.375 957.375 L 80.375 966.15625 L 84.875 966.15625 L 84.875 975.15625 L 80.375 975.15625 L 80.375 989.5625 L 68.6875 989.5625 L 68.6875 975.15625 L 64.1875 975.15625 L 64.1875 966.15625 L 68.6875 966.15625 L 68.6875 957.375 L 56.53125 957.375 L 56.53125 951.75 L 0 951.75 z "
       transform="translate(0,-27.641)"
       id="rect3180" />
    <path
       style="fill:#ffffff;stroke:#000000;stroke-width:0;stroke-miterlimit:4;stroke-opacity:1;stroke-dasharray:none"
       d="m 490.09375,755.609 0,24.75 -22.5,0 0,36 22.5,0 0,6.75 -22.5,0 0,36 22.5,0 0,24.75 95.40625,0 0,-24.75 22.5,0 0,-36 -22.5,0 0,-6.75 22.5,0 0,-36 -22.5,0 0,-24.75 -95.40625,0 z m -11.25,36.90625 c 3.23087,0 5.84375,2.61288 5.84375,5.84375 0,3.23087 -2.61288,5.8437 -5.84375,5.8438 -3.23087,0 -5.84375,-2.61293 -5.84375,-5.8438 0,-3.23087 2.61288,-5.84375 5.84375,-5.84375 z m 117.90625,0 c 3.23087,0 5.84375,2.61288 5.84375,5.84375 0,3.23087 -2.61288,5.8437 -5.84375,5.8438 -3.23087,0 -5.84375,-2.61293 -5.84375,-5.8438 0,-3.23087 2.61288,-5.84375 5.84375,-5.84375 z m -78.65625,35.28125 c 12.42641,0 22.5,10.0736 22.5,22.5 0,12.4264 -10.07359,22.5 -22.5,22.5 -12.42641,0 -22.5,-10.0736 -22.5,-22.5 0,-12.4264 10.07359,-22.5 22.5,-22.5 z m -39.25,7.4687 c 3.23087,0 5.84375,2.6129 5.84375,5.8438 0,3.2309 -2.61288,5.8436 -5.84375,5.8438 -3.23087,0 -5.84375,-2.6129 -5.84375,-5.8438 0,-3.2309 2.61288,-5.8436 5.84375,-5.8438 z m 117.90625,0 c 3.23087,0 5.84375,2.6129 5.84375,5.8438 0,3.2309 -2.61288,5.8436 -5.84375,5.8438 -3.23087,0 -5.84375,-2.6129 -5.84375,-5.8438 0,-3.2309 2.61288,-5.8436 5.84375,-5.8438 z m -25.25,20.4376 c 4.47351,0 8.09375,3.6202 8.09375,8.0937 0,4.4735 -3.62024,8.0938 -8.09375,8.0937 -4.47351,0 -8.09375,-3.6202 -8.09375,-8.0937 0,-4.4735 3.62024,-8.0937 8.09375,-8.0937 z"
       id="rect3984" />
    <path
       style="fill:#ffffff;stroke:#000000;stroke-width:0;stroke-miterlimit:4;stroke-opacity:1;stroke-dasharray:none"
       d="M 56.53125 801.5 L 56.53125 824 L 5.625 824 L 5.625 919.40625 L 56.53125 919.40625 L 56.53125 941.90625 L 92.53125 941.90625 L 92.53125 919.40625 L 131.125 919.40625 L 131.125 941.90625 L 167.125 941.90625 L 167.125 919.40625 L 218.03125 919.40625 L 218.03125 824 L 167.125 824 L 167.125 801.5 L 131.125 801.5 L 131.125 824 L 92.53125 824 L 92.53125 801.5 L 56.53125 801.5 z M 74.53125 806.90625 C 77.76212 806.90625 80.375 809.51913 80.375 812.75 C 80.375 815.98087 77.76212 818.59375 74.53125 818.59375 C 71.30038 818.59375 68.6876 815.98087 68.6875 812.75 C 68.6875 809.51913 71.30038 806.90625 74.53125 806.90625 z M 149.125 806.90625 C 152.3559 806.90625 154.96875 809.51913 154.96875 812.75 C 154.96875 815.98087 152.3559 818.59375 149.125 818.59375 C 145.8941 818.59375 143.28135 815.98087 143.28125 812.75 C 143.28125 809.51913 145.8941 806.90625 149.125 806.90625 z M 74.53125 924.8125 C 77.76212 924.8125 80.375 927.42538 80.375 930.65625 C 80.375 933.88712 77.76212 936.5 74.53125 936.5 C 71.30038 936.5 68.6876 933.88712 68.6875 930.65625 C 68.6875 927.42538 71.30038 924.8125 74.53125 924.8125 z M 149.125 924.8125 C 152.3559 924.8125 154.96875 927.42538 154.96875 930.65625 C 154.96875 933.88712 152.3559 936.5 149.125 936.5 C 145.8941 936.5 143.28135 933.88712 143.28125 930.65625 C 143.28125 927.42538 145.8941 924.8125 149.125 924.8125 z "
       transform="translate(0,-27.641)"
       id="rect4013" />
    <path
       style="fill:#ffffff;stroke:#000000;stroke-width:0;stroke-miterlimit:4;stroke-opacity:1;stroke-dasharray:none"
       d="m 666.09375,739.609 0,24.75 -22.5,0 0,36 22.5,0 0,6.75 -22.5,0 0,36 22.5,0 0,24.75 95.40625,0 0,-24.75 22.5,0 0,-36 -22.5,0 0,-6.75 22.5,0 0,-36 -22.5,0 0,-24.75 -95.40625,0 z m -11.25,36.90625 c 3.23087,0 5.84375,2.61288 5.84375,5.84375 0,3.23087 -2.61288,5.84365 -5.84375,5.84375 -3.23087,0 -5.84375,-2.61288 -5.84375,-5.84375 0,-3.23087 2.61288,-5.84375 5.84375,-5.84375 z m 117.90625,0 c 3.23087,0 5.84375,2.61288 5.84375,5.84375 0,3.23087 -2.61288,5.84365 -5.84375,5.84375 -3.23087,0 -5.84375,-2.61288 -5.84375,-5.84375 0,-3.23087 2.61288,-5.84375 5.84375,-5.84375 z m -58.96875,4.71875 c 12.42641,0 22.5,10.07359 22.5,22.5 0,12.4264 -10.07359,22.5 -22.5,22.5 -12.42641,0 -22.5,-10.0736 -22.5,-22.5 0,-12.42641 10.07359,-22.5 22.5,-22.5 z m -58.9375,38.0312 c 3.23087,0 5.84375,2.6129 5.84375,5.8438 0,3.2309 -2.61288,5.8436 -5.84375,5.8438 -3.23087,0 -5.84375,-2.6129 -5.84375,-5.8438 0,-3.2309 2.61288,-5.8436 5.84375,-5.8438 z m 117.90625,0 c 3.23087,0 5.84375,2.6129 5.84375,5.8438 0,3.2309 -2.61288,5.8436 -5.84375,5.8438 -3.23087,0 -5.84375,-2.6129 -5.84375,-5.8438 0,-3.2309 2.61288,-5.8436 5.84375,-5.8438 z"
       id="path4064" />
    <path
       id="path4072"
       d="m 302.5,766.45275 0,22.5 -50.90625,0 0,95.40625 50.90625,0 0,22.5 36,0 0,-22.5 38.59375,0 0,22.5 36,0 0,-22.5 50.90625,0 0,-95.40625 -50.90625,0 0,-22.5 -36,0 0,22.5 -38.59375,0 0,-22.5 -36,0 z m 18,5.40625 c 3.23087,0 5.84375,2.61288 5.84375,5.84375 0,3.23087 -2.61288,5.84375 -5.84375,5.84375 -3.23087,0 -5.84365,-2.61288 -5.84375,-5.84375 0,-3.23087 2.61288,-5.84375 5.84375,-5.84375 z m 74.59375,0 c 3.2309,0 5.84375,2.61288 5.84375,5.84375 0,3.23087 -2.61285,5.84375 -5.84375,5.84375 -3.2309,0 -5.84365,-2.61288 -5.84375,-5.84375 0,-3.23087 2.61285,-5.84375 5.84375,-5.84375 z M 320.5,889.76525 c 3.23087,0 5.84375,2.61288 5.84375,5.84375 0,3.23087 -2.61288,5.84375 -5.84375,5.84375 -3.23087,0 -5.84365,-2.61288 -5.84375,-5.84375 0,-3.23087 2.61288,-5.84375 5.84375,-5.84375 z m 74.59375,0 c 3.2309,0 5.84375,2.61288 5.84375,5.84375 0,3.23087 -2.61285,5.84375 -5.84375,5.84375 -3.2309,0 -5.84365,-2.61288 -5.84375,-5.84375 0,-3.23087 2.61285,-5.84375 5.84375,-5.84375 z"
       style="fill:#ffffff;stroke:#000000;stroke-width:0;stroke-miterlimit:4;stroke-opacity:1;stroke-dasharray:none" />
    <path
       style="fill:#ffffff;stroke:#000000;stroke-width:0;stroke-miterlimit:4;stroke-opacity:1;stroke-dasharray:none"
       d="m 842.09375,739.609 0,24.75 -22.5,0 0,36 22.5,0 0,6.75 -22.5,0 0,36.00005 22.5,0 0,24.75 95.40625,0 0,-24.7501 22.5,0 0,-35.99995 -22.5,0 0,-6.75 22.5,0 0,-36 -22.5,0 0,-24.75 -95.40625,0 z m -11.25,36.90625 c 3.23087,0 5.84375,2.61288 5.84375,5.84375 0,3.23087 -2.61288,5.8437 -5.84375,5.8438 -3.23087,0 -5.84375,-2.61293 -5.84375,-5.8438 0,-3.23087 2.61288,-5.84375 5.84375,-5.84375 z m 117.90625,0 c 3.23087,0 5.84375,2.61288 5.84375,5.84375 0,3.23087 -2.61288,5.8437 -5.84375,5.8438 -3.23087,0 -5.84375,-2.61293 -5.84375,-5.8438 0,-3.23087 2.61288,-5.84375 5.84375,-5.84375 z M 830.84375,819.2652 c 3.23087,0 5.84375,2.6129 5.84375,5.8438 0,3.2309 -2.61288,5.8436 -5.84375,5.8438 -3.23087,0 -5.84375,-2.6129 -5.84375,-5.8438 0,-3.2309 2.61288,-5.8436 5.84375,-5.8438 z m 117.90625,0 c 3.23087,0 5.84375,2.6129 5.84375,5.8438 0,3.2309 -2.61288,5.8437 -5.84375,5.8438 -3.23087,0 -5.84375,-2.6129 -5.84375,-5.8438 0,-3.2309 2.61288,-5.8437 5.84375,-5.8438 z"
       id="path4085" />
    <path
       id="path4103"
       d="m 302.75,935.4528 0,24.75 5.625,0 0,12.1562 8.78125,0 0,-4.5 9,0 0,4.5 14.40625,0 0,11.6876 -14.40625,0 0,4.5 -9,0 0,-4.5 -8.78125,0 0,12.1562 -5.625,0 0,6.75 5.625,0 0,12.1561 8.78125,0 0,-4.5 9,0 0,4.5 14.40625,0 0,11.6877 -14.40625,0 0,4.5 -9,0 0,-4.5 -8.78125,0 0,12.1562 -5.625,0 0,24.75 56.53125,0 0,-5.625 12.15625,0 0,-8.7812 -4.5,0 0,-9 4.5,0 0,-14.4063 11.6875,0 0,14.4063 4.5,0 0,9 -4.5,0 0,8.7812 12.15625,0 0,5.625 38.59375,0 0,-5.625 12.15625,0 0,-8.7812 -4.5,0 0,-9 4.5,0 0,-14.4063 11.6875,0 0,14.4063 4.5,0 0,9 -4.5,0 0,8.7812 12.15625,0 0,5.625 56.53125,0 0,-24.75 -5.625,0 0,-12.1562 -8.78125,0 0,4.5 -9,0 0,-4.5 -14.40625,0 0,-11.6877 14.40625,0 0,-4.5 9,0 0,4.5 8.78125,0 0,-12.1561 5.625,0 0,-6.75 -5.625,0 0,-12.1562 -8.78125,0 0,4.5 -9,0 0,-4.5 -14.40625,0 0,-11.6876 14.40625,0 0,-4.5 9,0 0,4.5 8.78125,0 0,-12.1562 5.625,0 0,-24.75 -56.53125,0 0,5.625 -12.15625,0 0,8.7812 4.5,0 0,9 -4.5,0 0,14.4063 -11.6875,0 0,-14.4063 -4.5,0 0,-9 4.5,0 0,-8.7812 -12.15625,0 0,-5.625 -38.59375,0 0,5.625 -12.15625,0 0,8.7812 4.5,0 0,9 -4.5,0 0,14.4063 -11.6875,0 0,-14.4063 -4.5,0 0,-9 4.5,0 0,-8.7812 -12.15625,0 0,-5.625 -56.53125,0 z"
       style="fill:#ffffff;stroke:#000000;stroke-width:0;stroke-miterlimit:4;stroke-opacity:1;stroke-dasharray:none" />
  </g>
</svg>
