999
DXF created by Inkscape
  0
SECTION
  2
HEADER
  9
$ACADVER
  1
AC1014
  9
$HANDSEED
  5
FFFF
  9
$MEASUREMENT
 70
     1
  0
ENDSEC
  0
SECTION
  2
TABLES
  0
TABLE
  2
VPORT
  5
8
330
0
100
AcDbSymbolTable
 70
     4
  0
VPORT
  5
2E
330
8
100
AcDbSymbolTableRecord
100
AcDbViewportTableRecord
  2
*ACTIVE
 70
     0
 10
0.0
 20
0.0
 11
1.0
 21
1.0
 12
210.0
 22
148.5
 13
0.0
 23
0.0
 14
10.0
 24
10.0
 15
10.0
 25
10.0
 16
0.0
 26
0.0
 36
1.0
 17
0.0
 27
0.0
 37
0.0
 40
341.0
 41
1.24
 42
50.0
 43
0.0
 44
0.0
 50
0.0
 51
0.0
 71
     0
 72
   100
 73
     1
 74
     3
 75
     0
 76
     0
 77
     0
 78
     0
  0
ENDTAB
  0
TABLE
  2
LTYPE
  5
5
330
0
100
AcDbSymbolTable
 70
     1
  0
LTYPE
  5
14
330
5
100
AcDbSymbolTableRecord
100
AcDbLinetypeTableRecord
  2
BYBLOCK
 70
     0
  3

 72
    65
 73
     0
 40
0.0
  0
LTYPE
  5
15
330
5
100
AcDbSymbolTableRecord
100
AcDbLinetypeTableRecord
  2
BYLAYER
 70
     0
  3

 72
    65
 73
     0
 40
0.0
  0
LTYPE
  5
16
330
5
100
AcDbSymbolTableRecord
100
AcDbLinetypeTableRecord
  2
CONTINUOUS
 70
     0
  3
Solid line
 72
    65
 73
     0
 40
0.0
  0
ENDTAB
  0
TABLE
  2
LAYER
  5
2
330
0
100
AcDbSymbolTable
 70
1
  0
LAYER
  5
10
330
2
100
AcDbSymbolTableRecord
100
AcDbLayerTableRecord
  2
0
 70
     0
 62
     7
  6
CONTINUOUS
  0
ENDTAB
  0
TABLE
  2
STYLE
  5
3
330
0
100
AcDbSymbolTable
 70
     1
  0
STYLE
  5
11
330
3
100
AcDbSymbolTableRecord
100
AcDbTextStyleTableRecord
  2
STANDARD
 70
     0
 40
0.0
 41
1.0
 50
0.0
 71
     0
 42
2.5
  3
txt
  4

  0
ENDTAB
  0
TABLE
  2
VIEW
  5
6
330
0
100
AcDbSymbolTable
 70
     0
  0
ENDTAB
  0
TABLE
  2
UCS
  5
7
330
0
100
AcDbSymbolTable
 70
     0
  0
ENDTAB
  0
TABLE
  2
APPID
  5
9
330
0
100
AcDbSymbolTable
 70
     2
  0
APPID
  5
12
330
9
100
AcDbSymbolTableRecord
100
AcDbRegAppTableRecord
  2
ACAD
 70
     0
  0
ENDTAB
  0
TABLE
  2
DIMSTYLE
  5
A
330
0
100
AcDbSymbolTable
 70
     1
  0
DIMSTYLE
105
27
330
A
100
AcDbSymbolTableRecord
100
AcDbDimStyleTableRecord
  2
ISO-25
 70
     0
  3

  4

  5

  6

  7

 40
1.0
 41
2.5
 42
0.625
 43
3.75
 44
1.25
 45
0.0
 46
0.0
 47
0.0
 48
0.0
140
2.5
141
2.5
142
0.0
143
0.03937007874016
144
1.0
145
0.0
146
1.0
147
0.625
 71
     0
 72
     0
 73
     0
 74
     0
 75
     0
 76
     0
 77
     1
 78
     8
170
     0
171
     3
172
     1
173
     0
174
     0
175
     0
176
     0
177
     0
178
     0
270
     2
271
     2
272
     2
273
     2
274
     3
340
11
275
     0
280
     0
281
     0
282
     0
283
     0
284
     8
285
     0
286
     0
287
     3
288
     0
  0
ENDTAB
  0
TABLE
  2
BLOCK_RECORD
  5
1
330
0
100
AcDbSymbolTable
 70
     1
  0
BLOCK_RECORD
  5
1F
330
1
100
AcDbSymbolTableRecord
100
AcDbBlockTableRecord
  2
*MODEL_SPACE
  0
BLOCK_RECORD
  5
1B
330
1
100
AcDbSymbolTableRecord
100
AcDbBlockTableRecord
  2
*PAPER_SPACE
  0
ENDTAB
  0
ENDSEC
  0
SECTION
  2
BLOCKS
  0
BLOCK
  5
20
330
1F
100
AcDbEntity
  8
0
100
AcDbBlockBegin
  2
*MODEL_SPACE
 70
     0
 10
0.0
 20
0.0
 30
0.0
  3
*MODEL_SPACE
  1

  0
ENDBLK
  5
21
330
1F
100
AcDbEntity
  8
0
100
AcDbBlockEnd
  0
BLOCK
  5
1C
330
1B
100
AcDbEntity
 67
     1
  8
0
100
AcDbBlockBegin
  2
*PAPER_SPACE
  1

  0
ENDBLK
  5
1D
330
1B
100
AcDbEntity
 67
     1
  8
0
100
AcDbBlockEnd
  0
ENDSEC
  0
SECTION
  2
ENTITIES
  0
LWPOLYLINE
  5
100
100
AcDbEntity
  8
0
 62
7
100
AcDbPolyline
 90
134
 70
0
 10
9.031111
 20
253.757571
 30
0.0
 10
9.031111
 20
246.772571
 30
0.0
 10
10.618611
 20
246.772571
 30
0.0
 10
10.618611
 20
243.341807
 30
0.0
 10
13.096875
 20
243.341807
 30
0.0
 10
13.096875
 20
244.611807
 30
0.0
 10
15.636875
 20
244.611807
 30
0.0
 10
15.636875
 20
243.341807
 30
0.0
 10
19.702639
 20
243.341807
 30
0.0
 10
19.702639
 20
240.043321
 30
0.0
 10
15.636875
 20
240.043321
 30
0.0
 10
15.636875
 20
238.773321
 30
0.0
 10
13.096875
 20
238.773321
 30
0.0
 10
13.096875
 20
240.043321
 30
0.0
 10
10.618611
 20
240.043321
 30
0.0
 10
10.618611
 20
236.612571
 30
0.0
 10
9.031111
 20
236.612571
 30
0.0
 10
9.031111
 20
234.707571
 30
0.0
 10
10.618611
 20
234.707571
 30
0.0
 10
10.618611
 20
231.276821
 30
0.0
 10
13.096875
 20
231.276821
 30
0.0
 10
13.096875
 20
232.546821
 30
0.0
 10
15.636875
 20
232.546821
 30
0.0
 10
15.636875
 20
231.276821
 30
0.0
 10
19.702639
 20
231.276821
 30
0.0
 10
19.702639
 20
227.978321
 30
0.0
 10
15.636875
 20
227.978321
 30
0.0
 10
15.636875
 20
226.708321
 30
0.0
 10
13.096875
 20
226.708321
 30
0.0
 10
13.096875
 20
227.978321
 30
0.0
 10
10.618611
 20
227.978321
 30
0.0
 10
10.618611
 20
224.547571
 30
0.0
 10
9.031111
 20
224.547571
 30
0.0
 10
9.031111
 20
217.562571
 30
0.0
 10
24.985486
 20
217.562571
 30
0.0
 10
24.985486
 20
219.150071
 30
0.0
 10
28.416250
 20
219.150071
 30
0.0
 10
28.416250
 20
221.628321
 30
0.0
 10
27.146250
 20
221.628321
 30
0.0
 10
27.146250
 20
224.168321
 30
0.0
 10
28.416250
 20
224.168321
 30
0.0
 10
28.416250
 20
228.234099
 30
0.0
 10
31.714722
 20
228.234099
 30
0.0
 10
31.714722
 20
224.168321
 30
0.0
 10
32.984722
 20
224.168321
 30
0.0
 10
32.984722
 20
221.628321
 30
0.0
 10
31.714722
 20
221.628321
 30
0.0
 10
31.714722
 20
219.150071
 30
0.0
 10
35.145486
 20
219.150071
 30
0.0
 10
35.145486
 20
217.562571
 30
0.0
 10
46.037500
 20
217.562571
 30
0.0
 10
46.037500
 20
219.150071
 30
0.0
 10
49.468264
 20
219.150071
 30
0.0
 10
49.468264
 20
221.628321
 30
0.0
 10
48.198264
 20
221.628321
 30
0.0
 10
48.198264
 20
224.168321
 30
0.0
 10
49.468264
 20
224.168321
 30
0.0
 10
49.468264
 20
228.234099
 30
0.0
 10
52.766736
 20
228.234099
 30
0.0
 10
52.766736
 20
224.168321
 30
0.0
 10
54.036736
 20
224.168321
 30
0.0
 10
54.036736
 20
221.628321
 30
0.0
 10
52.766736
 20
221.628321
 30
0.0
 10
52.766736
 20
219.150071
 30
0.0
 10
56.197500
 20
219.150071
 30
0.0
 10
56.197500
 20
217.562571
 30
0.0
 10
72.151875
 20
217.562571
 30
0.0
 10
72.151875
 20
224.547571
 30
0.0
 10
70.564375
 20
224.547571
 30
0.0
 10
70.564375
 20
227.978321
 30
0.0
 10
68.086111
 20
227.978321
 30
0.0
 10
68.086111
 20
226.708321
 30
0.0
 10
65.546111
 20
226.708321
 30
0.0
 10
65.546111
 20
227.978321
 30
0.0
 10
61.480347
 20
227.978321
 30
0.0
 10
61.480347
 20
231.276821
 30
0.0
 10
65.546111
 20
231.276821
 30
0.0
 10
65.546111
 20
232.546821
 30
0.0
 10
68.086111
 20
232.546821
 30
0.0
 10
68.086111
 20
231.276821
 30
0.0
 10
70.564375
 20
231.276821
 30
0.0
 10
70.564375
 20
234.707571
 30
0.0
 10
72.151875
 20
234.707571
 30
0.0
 10
72.151875
 20
236.612571
 30
0.0
 10
70.564375
 20
236.612571
 30
0.0
 10
70.564375
 20
240.043321
 30
0.0
 10
68.086111
 20
240.043321
 30
0.0
 10
68.086111
 20
238.773321
 30
0.0
 10
65.546111
 20
238.773321
 30
0.0
 10
65.546111
 20
240.043321
 30
0.0
 10
61.480347
 20
240.043321
 30
0.0
 10
61.480347
 20
243.341807
 30
0.0
 10
65.546111
 20
243.341807
 30
0.0
 10
65.546111
 20
244.611807
 30
0.0
 10
68.086111
 20
244.611807
 30
0.0
 10
68.086111
 20
243.341807
 30
0.0
 10
70.564375
 20
243.341807
 30
0.0
 10
70.564375
 20
246.772571
 30
0.0
 10
72.151875
 20
246.772571
 30
0.0
 10
72.151875
 20
253.757571
 30
0.0
 10
56.197500
 20
253.757571
 30
0.0
 10
56.197500
 20
252.170071
 30
0.0
 10
52.766736
 20
252.170071
 30
0.0
 10
52.766736
 20
249.691807
 30
0.0
 10
54.036736
 20
249.691807
 30
0.0
 10
54.036736
 20
247.151807
 30
0.0
 10
52.766736
 20
247.151807
 30
0.0
 10
52.766736
 20
243.086043
 30
0.0
 10
49.468264
 20
243.086043
 30
0.0
 10
49.468264
 20
247.151807
 30
0.0
 10
48.198264
 20
247.151807
 30
0.0
 10
48.198264
 20
249.691807
 30
0.0
 10
49.468264
 20
249.691807
 30
0.0
 10
49.468264
 20
252.170071
 30
0.0
 10
46.037500
 20
252.170071
 30
0.0
 10
46.037500
 20
253.757571
 30
0.0
 10
35.145486
 20
253.757571
 30
0.0
 10
35.145486
 20
252.170071
 30
0.0
 10
31.714722
 20
252.170071
 30
0.0
 10
31.714722
 20
249.691807
 30
0.0
 10
32.984722
 20
249.691807
 30
0.0
 10
32.984722
 20
247.151807
 30
0.0
 10
31.714722
 20
247.151807
 30
0.0
 10
31.714722
 20
243.086043
 30
0.0
 10
28.416250
 20
243.086043
 30
0.0
 10
28.416250
 20
247.151807
 30
0.0
 10
27.146250
 20
247.151807
 30
0.0
 10
27.146250
 20
249.691807
 30
0.0
 10
28.416250
 20
249.691807
 30
0.0
 10
28.416250
 20
252.170071
 30
0.0
 10
24.985486
 20
252.170071
 30
0.0
 10
24.985486
 20
253.757571
 30
0.0
 10
9.031111
 20
253.757571
 30
0.0
 10
9.031111
 20
253.757571
 30
0.0
  0
SPLINE
  5
101
100
AcDbEntity
  8
0
 62
7
100
AcDbSpline
 70
8
 71
3
 72
8
 73
4
 74
0
 40
0
 40
0
 40
0
 40
0
 40
1
 40
1
 40
1
 40
1
 10
144.171458
 20
290.896252
 30
0.0
 10
145.083282
 20
290.896252
 30
0.0
 10
145.820694
 20
290.158839
 30
0.0
 10
145.820694
 20
289.247016
 30
0.0
  0
SPLINE
  5
102
100
AcDbEntity
  8
0
 62
7
100
AcDbSpline
 70
8
 71
3
 72
8
 73
4
 74
0
 40
0
 40
0
 40
0
 40
0
 40
1
 40
1
 40
1
 40
1
 10
145.820694
 20
289.247016
 30
0.0
 10
145.820694
 20
288.335192
 30
0.0
 10
145.083282
 20
287.597794
 30
0.0
 10
144.171458
 20
287.597765
 30
0.0
  0
SPLINE
  5
103
100
AcDbEntity
  8
0
 62
7
100
AcDbSpline
 70
8
 71
3
 72
8
 73
4
 74
0
 40
0
 40
0
 40
0
 40
0
 40
1
 40
1
 40
1
 40
1
 10
144.171458
 20
287.597765
 30
0.0
 10
143.259635
 20
287.597765
 30
0.0
 10
142.522222
 20
288.335192
 30
0.0
 10
142.522222
 20
289.247016
 30
0.0
  0
SPLINE
  5
104
100
AcDbEntity
  8
0
 62
7
100
AcDbSpline
 70
8
 71
3
 72
8
 73
4
 74
0
 40
0
 40
0
 40
0
 40
0
 40
1
 40
1
 40
1
 40
1
 10
142.522222
 20
289.247016
 30
0.0
 10
142.522222
 20
290.158839
 30
0.0
 10
143.259635
 20
290.896252
 30
0.0
 10
144.171458
 20
290.896252
 30
0.0
  0
LWPOLYLINE
  5
105
100
AcDbEntity
  8
0
 62
7
100
AcDbPolyline
 90
22
 70
0
 10
147.346458
 20
301.312016
 30
0.0
 10
147.346458
 20
294.327016
 30
0.0
 10
140.996458
 20
294.327016
 30
0.0
 10
140.996458
 20
284.167016
 30
0.0
 10
147.346458
 20
284.167016
 30
0.0
 10
147.346458
 20
282.262016
 30
0.0
 10
140.996458
 20
282.262016
 30
0.0
 10
140.996458
 20
272.102016
 30
0.0
 10
147.346458
 20
272.102016
 30
0.0
 10
147.346458
 20
265.117016
 30
0.0
 10
174.272222
 20
265.117016
 30
0.0
 10
174.272222
 20
272.102016
 30
0.0
 10
180.622222
 20
272.102016
 30
0.0
 10
180.622222
 20
282.262016
 30
0.0
 10
174.272222
 20
282.262016
 30
0.0
 10
174.272222
 20
284.167016
 30
0.0
 10
180.622222
 20
284.167016
 30
0.0
 10
180.622222
 20
294.327016
 30
0.0
 10
174.272222
 20
294.327016
 30
0.0
 10
174.272222
 20
301.312016
 30
0.0
 10
147.346458
 20
301.312016
 30
0.0
 10
147.346458
 20
301.312016
 30
0.0
  0
SPLINE
  5
106
100
AcDbEntity
  8
0
 62
7
100
AcDbSpline
 70
8
 71
3
 72
8
 73
4
 74
0
 40
0
 40
0
 40
0
 40
0
 40
1
 40
1
 40
1
 40
1
 10
177.447222
 20
290.896252
 30
0.0
 10
178.359046
 20
290.896252
 30
0.0
 10
179.096458
 20
290.158839
 30
0.0
 10
179.096458
 20
289.247016
 30
0.0
  0
SPLINE
  5
107
100
AcDbEntity
  8
0
 62
7
100
AcDbSpline
 70
8
 71
3
 72
8
 73
4
 74
0
 40
0
 40
0
 40
0
 40
0
 40
1
 40
1
 40
1
 40
1
 10
179.096458
 20
289.247016
 30
0.0
 10
179.096458
 20
288.335192
 30
0.0
 10
178.359046
 20
287.597794
 30
0.0
 10
177.447222
 20
287.597765
 30
0.0
  0
SPLINE
  5
108
100
AcDbEntity
  8
0
 62
7
100
AcDbSpline
 70
8
 71
3
 72
8
 73
4
 74
0
 40
0
 40
0
 40
0
 40
0
 40
1
 40
1
 40
1
 40
1
 10
177.447222
 20
287.597765
 30
0.0
 10
176.535399
 20
287.597765
 30
0.0
 10
175.797986
 20
288.335192
 30
0.0
 10
175.797986
 20
289.247016
 30
0.0
  0
SPLINE
  5
109
100
AcDbEntity
  8
0
 62
7
100
AcDbSpline
 70
8
 71
3
 72
8
 73
4
 74
0
 40
0
 40
0
 40
0
 40
0
 40
1
 40
1
 40
1
 40
1
 10
175.797986
 20
289.247016
 30
0.0
 10
175.797986
 20
290.158839
 30
0.0
 10
176.535399
 20
290.896252
 30
0.0
 10
177.447222
 20
290.896252
 30
0.0
  0
LWPOLYLINE
  5
10a
100
AcDbEntity
  8
0
 62
7
100
AcDbPolyline
 90
2
 70
0
 10
144.171458
 20
290.896252
 30
0.0
 10
144.171458
 20
290.896252
 30
0.0
  0
SPLINE
  5
10b
100
AcDbEntity
  8
0
 62
7
100
AcDbSpline
 70
8
 71
3
 72
8
 73
4
 74
0
 40
0
 40
0
 40
0
 40
0
 40
1
 40
1
 40
1
 40
1
 10
155.248681
 20
280.939099
 30
0.0
 10
158.755690
 20
280.939099
 30
0.0
 10
161.598681
 20
278.096105
 30
0.0
 10
161.598681
 20
274.589099
 30
0.0
  0
SPLINE
  5
10c
100
AcDbEntity
  8
0
 62
7
100
AcDbSpline
 70
8
 71
3
 72
8
 73
4
 74
0
 40
0
 40
0
 40
0
 40
0
 40
1
 40
1
 40
1
 40
1
 10
161.598681
 20
274.589099
 30
0.0
 10
161.598681
 20
271.082093
 30
0.0
 10
158.755690
 20
268.239099
 30
0.0
 10
155.248681
 20
268.239099
 30
0.0
  0
SPLINE
  5
10d
100
AcDbEntity
  8
0
 62
7
100
AcDbSpline
 70
8
 71
3
 72
8
 73
4
 74
0
 40
0
 40
0
 40
0
 40
0
 40
1
 40
1
 40
1
 40
1
 10
155.248681
 20
268.239099
 30
0.0
 10
151.741672
 20
268.239099
 30
0.0
 10
148.898681
 20
271.082093
 30
0.0
 10
148.898681
 20
274.589099
 30
0.0
  0
SPLINE
  5
10e
100
AcDbEntity
  8
0
 62
7
100
AcDbSpline
 70
8
 71
3
 72
8
 73
4
 74
0
 40
0
 40
0
 40
0
 40
0
 40
1
 40
1
 40
1
 40
1
 10
148.898681
 20
274.589099
 30
0.0
 10
148.898681
 20
278.096105
 30
0.0
 10
151.741672
 20
280.939099
 30
0.0
 10
155.248681
 20
280.939099
 30
0.0
  0
LWPOLYLINE
  5
10f
100
AcDbEntity
  8
0
 62
7
100
AcDbPolyline
 90
2
 70
0
 10
177.447222
 20
290.896252
 30
0.0
 10
177.447222
 20
290.896252
 30
0.0
  0
SPLINE
  5
110
100
AcDbEntity
  8
0
 62
7
100
AcDbSpline
 70
8
 71
3
 72
8
 73
4
 74
0
 40
0
 40
0
 40
0
 40
0
 40
1
 40
1
 40
1
 40
1
 10
144.171458
 20
278.831266
 30
0.0
 10
145.083282
 20
278.831266
 30
0.0
 10
145.820694
 20
278.093847
 30
0.0
 10
145.820694
 20
277.182016
 30
0.0
  0
SPLINE
  5
111
100
AcDbEntity
  8
0
 62
7
100
AcDbSpline
 70
8
 71
3
 72
8
 73
4
 74
0
 40
0
 40
0
 40
0
 40
0
 40
1
 40
1
 40
1
 40
1
 10
145.820694
 20
277.182016
 30
0.0
 10
145.820694
 20
276.270184
 30
0.0
 10
145.083282
 20
275.532822
 30
0.0
 10
144.171458
 20
275.532765
 30
0.0
  0
SPLINE
  5
112
100
AcDbEntity
  8
0
 62
7
100
AcDbSpline
 70
8
 71
3
 72
8
 73
4
 74
0
 40
0
 40
0
 40
0
 40
0
 40
1
 40
1
 40
1
 40
1
 10
144.171458
 20
275.532765
 30
0.0
 10
143.259635
 20
275.532765
 30
0.0
 10
142.522222
 20
276.270184
 30
0.0
 10
142.522222
 20
277.182016
 30
0.0
  0
SPLINE
  5
113
100
AcDbEntity
  8
0
 62
7
100
AcDbSpline
 70
8
 71
3
 72
8
 73
4
 74
0
 40
0
 40
0
 40
0
 40
0
 40
1
 40
1
 40
1
 40
1
 10
142.522222
 20
277.182016
 30
0.0
 10
142.522222
 20
278.093847
 30
0.0
 10
143.259635
 20
278.831209
 30
0.0
 10
144.171458
 20
278.831266
 30
0.0
  0
LWPOLYLINE
  5
114
100
AcDbEntity
  8
0
 62
7
100
AcDbPolyline
 90
2
 70
0
 10
155.248681
 20
280.939099
 30
0.0
 10
155.248681
 20
280.939099
 30
0.0
  0
SPLINE
  5
115
100
AcDbEntity
  8
0
 62
7
100
AcDbSpline
 70
8
 71
3
 72
8
 73
4
 74
0
 40
0
 40
0
 40
0
 40
0
 40
1
 40
1
 40
1
 40
1
 10
177.447222
 20
278.831266
 30
0.0
 10
178.359046
 20
278.831266
 30
0.0
 10
179.096458
 20
278.093847
 30
0.0
 10
179.096458
 20
277.182016
 30
0.0
  0
SPLINE
  5
116
100
AcDbEntity
  8
0
 62
7
100
AcDbSpline
 70
8
 71
3
 72
8
 73
4
 74
0
 40
0
 40
0
 40
0
 40
0
 40
1
 40
1
 40
1
 40
1
 10
179.096458
 20
277.182016
 30
0.0
 10
179.096458
 20
276.270184
 30
0.0
 10
178.359046
 20
275.532822
 30
0.0
 10
177.447222
 20
275.532765
 30
0.0
  0
SPLINE
  5
117
100
AcDbEntity
  8
0
 62
7
100
AcDbSpline
 70
8
 71
3
 72
8
 73
4
 74
0
 40
0
 40
0
 40
0
 40
0
 40
1
 40
1
 40
1
 40
1
 10
177.447222
 20
275.532765
 30
0.0
 10
176.535399
 20
275.532765
 30
0.0
 10
175.797986
 20
276.270184
 30
0.0
 10
175.797986
 20
277.182016
 30
0.0
  0
SPLINE
  5
118
100
AcDbEntity
  8
0
 62
7
100
AcDbSpline
 70
8
 71
3
 72
8
 73
4
 74
0
 40
0
 40
0
 40
0
 40
0
 40
1
 40
1
 40
1
 40
1
 10
175.797986
 20
277.182016
 30
0.0
 10
175.797986
 20
278.093847
 30
0.0
 10
176.535399
 20
278.831209
 30
0.0
 10
177.447222
 20
278.831266
 30
0.0
  0
LWPOLYLINE
  5
119
100
AcDbEntity
  8
0
 62
7
100
AcDbPolyline
 90
2
 70
0
 10
144.171458
 20
278.831266
 30
0.0
 10
144.171458
 20
278.831266
 30
0.0
  0
SPLINE
  5
11a
100
AcDbEntity
  8
0
 62
7
100
AcDbSpline
 70
8
 71
3
 72
8
 73
4
 74
0
 40
0
 40
0
 40
0
 40
0
 40
1
 40
1
 40
1
 40
1
 10
170.321111
 20
273.063321
 30
0.0
 10
171.583635
 20
273.063321
 30
0.0
 10
172.605347
 20
272.041620
 30
0.0
 10
172.605347
 20
270.779099
 30
0.0
  0
SPLINE
  5
11b
100
AcDbEntity
  8
0
 62
7
100
AcDbSpline
 70
8
 71
3
 72
8
 73
4
 74
0
 40
0
 40
0
 40
0
 40
0
 40
1
 40
1
 40
1
 40
1
 10
172.605347
 20
270.779099
 30
0.0
 10
172.605347
 20
269.516578
 30
0.0
 10
171.583635
 20
268.494849
 30
0.0
 10
170.321111
 20
268.494877
 30
0.0
  0
SPLINE
  5
11c
100
AcDbEntity
  8
0
 62
7
100
AcDbSpline
 70
8
 71
3
 72
8
 73
4
 74
0
 40
0
 40
0
 40
0
 40
0
 40
1
 40
1
 40
1
 40
1
 10
170.321111
 20
268.494877
 30
0.0
 10
169.058587
 20
268.494877
 30
0.0
 10
168.036875
 20
269.516578
 30
0.0
 10
168.036875
 20
270.779099
 30
0.0
  0
SPLINE
  5
11d
100
AcDbEntity
  8
0
 62
7
100
AcDbSpline
 70
8
 71
3
 72
8
 73
4
 74
0
 40
0
 40
0
 40
0
 40
0
 40
1
 40
1
 40
1
 40
1
 10
168.036875
 20
270.779099
 30
0.0
 10
168.036875
 20
272.041620
 30
0.0
 10
169.058587
 20
273.063321
 30
0.0
 10
170.321111
 20
273.063321
 30
0.0
  0
LWPOLYLINE
  5
11e
100
AcDbEntity
  8
0
 62
7
100
AcDbPolyline
 90
2
 70
0
 10
177.447222
 20
278.831266
 30
0.0
 10
177.447222
 20
278.831266
 30
0.0
  0
LWPOLYLINE
  5
11f
100
AcDbEntity
  8
0
 62
7
100
AcDbPolyline
 90
2
 70
0
 10
170.321111
 20
273.063321
 30
0.0
 10
170.321111
 20
273.063321
 30
0.0
  0
SPLINE
  5
120
100
AcDbEntity
  8
0
 62
7
100
AcDbSpline
 70
8
 71
3
 72
8
 73
4
 74
0
 40
0
 40
0
 40
0
 40
0
 40
1
 40
1
 40
1
 40
1
 10
30.065486
 20
294.635696
 30
0.0
 10
30.977309
 20
294.635696
 30
0.0
 10
31.714722
 20
293.898283
 30
0.0
 10
31.714722
 20
292.986460
 30
0.0
  0
SPLINE
  5
121
100
AcDbEntity
  8
0
 62
7
100
AcDbSpline
 70
8
 71
3
 72
8
 73
4
 74
0
 40
0
 40
0
 40
0
 40
0
 40
1
 40
1
 40
1
 40
1
 10
31.714722
 20
292.986460
 30
0.0
 10
31.714722
 20
292.074637
 30
0.0
 10
30.977309
 20
291.337224
 30
0.0
 10
30.065486
 20
291.337224
 30
0.0
  0
SPLINE
  5
122
100
AcDbEntity
  8
0
 62
7
100
AcDbSpline
 70
8
 71
3
 72
8
 73
4
 74
0
 40
0
 40
0
 40
0
 40
0
 40
1
 40
1
 40
1
 40
1
 10
30.065486
 20
291.337224
 30
0.0
 10
29.153663
 20
291.337224
 30
0.0
 10
28.416278
 20
292.074637
 30
0.0
 10
28.416250
 20
292.986460
 30
0.0
  0
SPLINE
  5
123
100
AcDbEntity
  8
0
 62
7
100
AcDbSpline
 70
8
 71
3
 72
8
 73
4
 74
0
 40
0
 40
0
 40
0
 40
0
 40
1
 40
1
 40
1
 40
1
 10
28.416250
 20
292.986460
 30
0.0
 10
28.416250
 20
293.898283
 30
0.0
 10
29.153663
 20
294.635696
 30
0.0
 10
30.065486
 20
294.635696
 30
0.0
  0
LWPOLYLINE
  5
124
100
AcDbEntity
  8
0
 62
7
100
AcDbPolyline
 90
22
 70
0
 10
24.985486
 20
296.161460
 30
0.0
 10
24.985486
 20
289.811460
 30
0.0
 10
10.618611
 20
289.811460
 30
0.0
 10
10.618611
 20
262.885696
 30
0.0
 10
24.985486
 20
262.885696
 30
0.0
 10
24.985486
 20
256.535696
 30
0.0
 10
35.145486
 20
256.535696
 30
0.0
 10
35.145486
 20
262.885696
 30
0.0
 10
46.037500
 20
262.885696
 30
0.0
 10
46.037500
 20
256.535696
 30
0.0
 10
56.197500
 20
256.535696
 30
0.0
 10
56.197500
 20
262.885696
 30
0.0
 10
70.564375
 20
262.885696
 30
0.0
 10
70.564375
 20
289.811460
 30
0.0
 10
56.197500
 20
289.811460
 30
0.0
 10
56.197500
 20
296.161460
 30
0.0
 10
46.037500
 20
296.161460
 30
0.0
 10
46.037500
 20
289.811460
 30
0.0
 10
35.145486
 20
289.811460
 30
0.0
 10
35.145486
 20
296.161460
 30
0.0
 10
24.985486
 20
296.161460
 30
0.0
 10
24.985486
 20
296.161460
 30
0.0
  0
SPLINE
  5
125
100
AcDbEntity
  8
0
 62
7
100
AcDbSpline
 70
8
 71
3
 72
8
 73
4
 74
0
 40
0
 40
0
 40
0
 40
0
 40
1
 40
1
 40
1
 40
1
 10
51.117500
 20
294.635696
 30
0.0
 10
52.029332
 20
294.635696
 30
0.0
 10
52.766736
 20
293.898283
 30
0.0
 10
52.766736
 20
292.986460
 30
0.0
  0
SPLINE
  5
126
100
AcDbEntity
  8
0
 62
7
100
AcDbSpline
 70
8
 71
3
 72
8
 73
4
 74
0
 40
0
 40
0
 40
0
 40
0
 40
1
 40
1
 40
1
 40
1
 10
52.766736
 20
292.986460
 30
0.0
 10
52.766736
 20
292.074637
 30
0.0
 10
52.029332
 20
291.337224
 30
0.0
 10
51.117500
 20
291.337224
 30
0.0
  0
SPLINE
  5
127
100
AcDbEntity
  8
0
 62
7
100
AcDbSpline
 70
8
 71
3
 72
8
 73
4
 74
0
 40
0
 40
0
 40
0
 40
0
 40
1
 40
1
 40
1
 40
1
 10
51.117500
 20
291.337224
 30
0.0
 10
50.205668
 20
291.337224
 30
0.0
 10
49.468292
 20
292.074637
 30
0.0
 10
49.468264
 20
292.986460
 30
0.0
  0
SPLINE
  5
128
100
AcDbEntity
  8
0
 62
7
100
AcDbSpline
 70
8
 71
3
 72
8
 73
4
 74
0
 40
0
 40
0
 40
0
 40
0
 40
1
 40
1
 40
1
 40
1
 10
49.468264
 20
292.986460
 30
0.0
 10
49.468264
 20
293.898283
 30
0.0
 10
50.205668
 20
294.635696
 30
0.0
 10
51.117500
 20
294.635696
 30
0.0
  0
LWPOLYLINE
  5
129
100
AcDbEntity
  8
0
 62
7
100
AcDbPolyline
 90
2
 70
0
 10
30.065486
 20
294.635696
 30
0.0
 10
30.065486
 20
294.635696
 30
0.0
  0
SPLINE
  5
12a
100
AcDbEntity
  8
0
 62
7
100
AcDbSpline
 70
8
 71
3
 72
8
 73
4
 74
0
 40
0
 40
0
 40
0
 40
0
 40
1
 40
1
 40
1
 40
1
 10
30.065486
 20
261.359932
 30
0.0
 10
30.977309
 20
261.359932
 30
0.0
 10
31.714722
 20
260.622519
 30
0.0
 10
31.714722
 20
259.710696
 30
0.0
  0
SPLINE
  5
12b
100
AcDbEntity
  8
0
 62
7
100
AcDbSpline
 70
8
 71
3
 72
8
 73
4
 74
0
 40
0
 40
0
 40
0
 40
0
 40
1
 40
1
 40
1
 40
1
 10
31.714722
 20
259.710696
 30
0.0
 10
31.714722
 20
258.798873
 30
0.0
 10
30.977309
 20
258.061460
 30
0.0
 10
30.065486
 20
258.061460
 30
0.0
  0
SPLINE
  5
12c
100
AcDbEntity
  8
0
 62
7
100
AcDbSpline
 70
8
 71
3
 72
8
 73
4
 74
0
 40
0
 40
0
 40
0
 40
0
 40
1
 40
1
 40
1
 40
1
 10
30.065486
 20
258.061460
 30
0.0
 10
29.153663
 20
258.061460
 30
0.0
 10
28.416278
 20
258.798873
 30
0.0
 10
28.416250
 20
259.710696
 30
0.0
  0
SPLINE
  5
12d
100
AcDbEntity
  8
0
 62
7
100
AcDbSpline
 70
8
 71
3
 72
8
 73
4
 74
0
 40
0
 40
0
 40
0
 40
0
 40
1
 40
1
 40
1
 40
1
 10
28.416250
 20
259.710696
 30
0.0
 10
28.416250
 20
260.622519
 30
0.0
 10
29.153663
 20
261.359932
 30
0.0
 10
30.065486
 20
261.359932
 30
0.0
  0
LWPOLYLINE
  5
12e
100
AcDbEntity
  8
0
 62
7
100
AcDbPolyline
 90
2
 70
0
 10
51.117500
 20
294.635696
 30
0.0
 10
51.117500
 20
294.635696
 30
0.0
  0
SPLINE
  5
12f
100
AcDbEntity
  8
0
 62
7
100
AcDbSpline
 70
8
 71
3
 72
8
 73
4
 74
0
 40
0
 40
0
 40
0
 40
0
 40
1
 40
1
 40
1
 40
1
 10
51.117500
 20
261.359932
 30
0.0
 10
52.029332
 20
261.359932
 30
0.0
 10
52.766736
 20
260.622519
 30
0.0
 10
52.766736
 20
259.710696
 30
0.0
  0
SPLINE
  5
130
100
AcDbEntity
  8
0
 62
7
100
AcDbSpline
 70
8
 71
3
 72
8
 73
4
 74
0
 40
0
 40
0
 40
0
 40
0
 40
1
 40
1
 40
1
 40
1
 10
52.766736
 20
259.710696
 30
0.0
 10
52.766736
 20
258.798873
 30
0.0
 10
52.029332
 20
258.061460
 30
0.0
 10
51.117500
 20
258.061460
 30
0.0
  0
SPLINE
  5
131
100
AcDbEntity
  8
0
 62
7
100
AcDbSpline
 70
8
 71
3
 72
8
 73
4
 74
0
 40
0
 40
0
 40
0
 40
0
 40
1
 40
1
 40
1
 40
1
 10
51.117500
 20
258.061460
 30
0.0
 10
50.205668
 20
258.061460
 30
0.0
 10
49.468292
 20
258.798873
 30
0.0
 10
49.468264
 20
259.710696
 30
0.0
  0
SPLINE
  5
132
100
AcDbEntity
  8
0
 62
7
100
AcDbSpline
 70
8
 71
3
 72
8
 73
4
 74
0
 40
0
 40
0
 40
0
 40
0
 40
1
 40
1
 40
1
 40
1
 10
49.468264
 20
259.710696
 30
0.0
 10
49.468264
 20
260.622519
 30
0.0
 10
50.205668
 20
261.359932
 30
0.0
 10
51.117500
 20
261.359932
 30
0.0
  0
LWPOLYLINE
  5
133
100
AcDbEntity
  8
0
 62
7
100
AcDbPolyline
 90
2
 70
0
 10
30.065486
 20
261.359932
 30
0.0
 10
30.065486
 20
261.359932
 30
0.0
  0
LWPOLYLINE
  5
134
100
AcDbEntity
  8
0
 62
7
100
AcDbPolyline
 90
2
 70
0
 10
51.117500
 20
261.359932
 30
0.0
 10
51.117500
 20
261.359932
 30
0.0
  0
SPLINE
  5
135
100
AcDbEntity
  8
0
 62
7
100
AcDbSpline
 70
8
 71
3
 72
8
 73
4
 74
0
 40
0
 40
0
 40
0
 40
0
 40
1
 40
1
 40
1
 40
1
 10
193.842569
 20
295.411807
 30
0.0
 10
194.754393
 20
295.411807
 30
0.0
 10
195.491806
 20
294.674394
 30
0.0
 10
195.491806
 20
293.762571
 30
0.0
  0
SPLINE
  5
136
100
AcDbEntity
  8
0
 62
7
100
AcDbSpline
 70
8
 71
3
 72
8
 73
4
 74
0
 40
0
 40
0
 40
0
 40
0
 40
1
 40
1
 40
1
 40
1
 10
195.491806
 20
293.762571
 30
0.0
 10
195.491806
 20
292.850748
 30
0.0
 10
194.754393
 20
292.113363
 30
0.0
 10
193.842569
 20
292.113335
 30
0.0
  0
SPLINE
  5
137
100
AcDbEntity
  8
0
 62
7
100
AcDbSpline
 70
8
 71
3
 72
8
 73
4
 74
0
 40
0
 40
0
 40
0
 40
0
 40
1
 40
1
 40
1
 40
1
 10
193.842569
 20
292.113335
 30
0.0
 10
192.930746
 20
292.113335
 30
0.0
 10
192.193333
 20
292.850748
 30
0.0
 10
192.193333
 20
293.762571
 30
0.0
  0
SPLINE
  5
138
100
AcDbEntity
  8
0
 62
7
100
AcDbSpline
 70
8
 71
3
 72
8
 73
4
 74
0
 40
0
 40
0
 40
0
 40
0
 40
1
 40
1
 40
1
 40
1
 10
192.193333
 20
293.762571
 30
0.0
 10
192.193333
 20
294.674394
 30
0.0
 10
192.930746
 20
295.411807
 30
0.0
 10
193.842569
 20
295.411807
 30
0.0
  0
LWPOLYLINE
  5
139
100
AcDbEntity
  8
0
 62
7
100
AcDbPolyline
 90
22
 70
0
 10
197.017569
 20
305.827571
 30
0.0
 10
197.017569
 20
298.842571
 30
0.0
 10
190.667569
 20
298.842571
 30
0.0
 10
190.667569
 20
288.682571
 30
0.0
 10
197.017569
 20
288.682571
 30
0.0
 10
197.017569
 20
286.777571
 30
0.0
 10
190.667569
 20
286.777571
 30
0.0
 10
190.667569
 20
276.617571
 30
0.0
 10
197.017569
 20
276.617571
 30
0.0
 10
197.017569
 20
269.632571
 30
0.0
 10
223.943333
 20
269.632571
 30
0.0
 10
223.943333
 20
276.617571
 30
0.0
 10
230.293333
 20
276.617571
 30
0.0
 10
230.293333
 20
286.777571
 30
0.0
 10
223.943333
 20
286.777571
 30
0.0
 10
223.943333
 20
288.682571
 30
0.0
 10
230.293333
 20
288.682571
 30
0.0
 10
230.293333
 20
298.842571
 30
0.0
 10
223.943333
 20
298.842571
 30
0.0
 10
223.943333
 20
305.827571
 30
0.0
 10
197.017569
 20
305.827571
 30
0.0
 10
197.017569
 20
305.827571
 30
0.0
  0
SPLINE
  5
13a
100
AcDbEntity
  8
0
 62
7
100
AcDbSpline
 70
8
 71
3
 72
8
 73
4
 74
0
 40
0
 40
0
 40
0
 40
0
 40
1
 40
1
 40
1
 40
1
 10
227.118333
 20
295.411807
 30
0.0
 10
228.030157
 20
295.411807
 30
0.0
 10
228.767569
 20
294.674394
 30
0.0
 10
228.767569
 20
293.762571
 30
0.0
  0
SPLINE
  5
13b
100
AcDbEntity
  8
0
 62
7
100
AcDbSpline
 70
8
 71
3
 72
8
 73
4
 74
0
 40
0
 40
0
 40
0
 40
0
 40
1
 40
1
 40
1
 40
1
 10
228.767569
 20
293.762571
 30
0.0
 10
228.767569
 20
292.850748
 30
0.0
 10
228.030157
 20
292.113363
 30
0.0
 10
227.118333
 20
292.113335
 30
0.0
  0
SPLINE
  5
13c
100
AcDbEntity
  8
0
 62
7
100
AcDbSpline
 70
8
 71
3
 72
8
 73
4
 74
0
 40
0
 40
0
 40
0
 40
0
 40
1
 40
1
 40
1
 40
1
 10
227.118333
 20
292.113335
 30
0.0
 10
226.206510
 20
292.113335
 30
0.0
 10
225.469097
 20
292.850748
 30
0.0
 10
225.469097
 20
293.762571
 30
0.0
  0
SPLINE
  5
13d
100
AcDbEntity
  8
0
 62
7
100
AcDbSpline
 70
8
 71
3
 72
8
 73
4
 74
0
 40
0
 40
0
 40
0
 40
0
 40
1
 40
1
 40
1
 40
1
 10
225.469097
 20
293.762571
 30
0.0
 10
225.469097
 20
294.674394
 30
0.0
 10
226.206510
 20
295.411807
 30
0.0
 10
227.118333
 20
295.411807
 30
0.0
  0
LWPOLYLINE
  5
13e
100
AcDbEntity
  8
0
 62
7
100
AcDbPolyline
 90
2
 70
0
 10
193.842569
 20
295.411807
 30
0.0
 10
193.842569
 20
295.411807
 30
0.0
  0
SPLINE
  5
13f
100
AcDbEntity
  8
0
 62
7
100
AcDbSpline
 70
8
 71
3
 72
8
 73
4
 74
0
 40
0
 40
0
 40
0
 40
0
 40
1
 40
1
 40
1
 40
1
 10
210.476042
 20
294.080071
 30
0.0
 10
213.983051
 20
294.080071
 30
0.0
 10
216.826042
 20
291.237080
 30
0.0
 10
216.826042
 20
287.730071
 30
0.0
  0
SPLINE
  5
140
100
AcDbEntity
  8
0
 62
7
100
AcDbSpline
 70
8
 71
3
 72
8
 73
4
 74
0
 40
0
 40
0
 40
0
 40
0
 40
1
 40
1
 40
1
 40
1
 10
216.826042
 20
287.730071
 30
0.0
 10
216.826042
 20
284.223065
 30
0.0
 10
213.983051
 20
281.380071
 30
0.0
 10
210.476042
 20
281.380071
 30
0.0
  0
SPLINE
  5
141
100
AcDbEntity
  8
0
 62
7
100
AcDbSpline
 70
8
 71
3
 72
8
 73
4
 74
0
 40
0
 40
0
 40
0
 40
0
 40
1
 40
1
 40
1
 40
1
 10
210.476042
 20
281.380071
 30
0.0
 10
206.969033
 20
281.380071
 30
0.0
 10
204.126042
 20
284.223065
 30
0.0
 10
204.126042
 20
287.730071
 30
0.0
  0
SPLINE
  5
142
100
AcDbEntity
  8
0
 62
7
100
AcDbSpline
 70
8
 71
3
 72
8
 73
4
 74
0
 40
0
 40
0
 40
0
 40
0
 40
1
 40
1
 40
1
 40
1
 10
204.126042
 20
287.730071
 30
0.0
 10
204.126042
 20
291.237080
 30
0.0
 10
206.969033
 20
294.080071
 30
0.0
 10
210.476042
 20
294.080071
 30
0.0
  0
LWPOLYLINE
  5
143
100
AcDbEntity
  8
0
 62
7
100
AcDbPolyline
 90
2
 70
0
 10
227.118333
 20
295.411807
 30
0.0
 10
227.118333
 20
295.411807
 30
0.0
  0
SPLINE
  5
144
100
AcDbEntity
  8
0
 62
7
100
AcDbSpline
 70
8
 71
3
 72
8
 73
4
 74
0
 40
0
 40
0
 40
0
 40
0
 40
1
 40
1
 40
1
 40
1
 10
193.842569
 20
283.346821
 30
0.0
 10
194.754393
 20
283.346821
 30
0.0
 10
195.491806
 20
282.609403
 30
0.0
 10
195.491806
 20
281.697571
 30
0.0
  0
SPLINE
  5
145
100
AcDbEntity
  8
0
 62
7
100
AcDbSpline
 70
8
 71
3
 72
8
 73
4
 74
0
 40
0
 40
0
 40
0
 40
0
 40
1
 40
1
 40
1
 40
1
 10
195.491806
 20
281.697571
 30
0.0
 10
195.491806
 20
280.785739
 30
0.0
 10
194.754393
 20
280.048377
 30
0.0
 10
193.842569
 20
280.048321
 30
0.0
  0
SPLINE
  5
146
100
AcDbEntity
  8
0
 62
7
100
AcDbSpline
 70
8
 71
3
 72
8
 73
4
 74
0
 40
0
 40
0
 40
0
 40
0
 40
1
 40
1
 40
1
 40
1
 10
193.842569
 20
280.048321
 30
0.0
 10
192.930746
 20
280.048321
 30
0.0
 10
192.193333
 20
280.785739
 30
0.0
 10
192.193333
 20
281.697571
 30
0.0
  0
SPLINE
  5
147
100
AcDbEntity
  8
0
 62
7
100
AcDbSpline
 70
8
 71
3
 72
8
 73
4
 74
0
 40
0
 40
0
 40
0
 40
0
 40
1
 40
1
 40
1
 40
1
 10
192.193333
 20
281.697571
 30
0.0
 10
192.193333
 20
282.609403
 30
0.0
 10
192.930746
 20
283.346765
 30
0.0
 10
193.842569
 20
283.346821
 30
0.0
  0
LWPOLYLINE
  5
148
100
AcDbEntity
  8
0
 62
7
100
AcDbPolyline
 90
2
 70
0
 10
210.476042
 20
294.080071
 30
0.0
 10
210.476042
 20
294.080071
 30
0.0
  0
SPLINE
  5
149
100
AcDbEntity
  8
0
 62
7
100
AcDbSpline
 70
8
 71
3
 72
8
 73
4
 74
0
 40
0
 40
0
 40
0
 40
0
 40
1
 40
1
 40
1
 40
1
 10
227.118333
 20
283.346821
 30
0.0
 10
228.030157
 20
283.346821
 30
0.0
 10
228.767569
 20
282.609403
 30
0.0
 10
228.767569
 20
281.697571
 30
0.0
  0
SPLINE
  5
14a
100
AcDbEntity
  8
0
 62
7
100
AcDbSpline
 70
8
 71
3
 72
8
 73
4
 74
0
 40
0
 40
0
 40
0
 40
0
 40
1
 40
1
 40
1
 40
1
 10
228.767569
 20
281.697571
 30
0.0
 10
228.767569
 20
280.785739
 30
0.0
 10
228.030157
 20
280.048377
 30
0.0
 10
227.118333
 20
280.048321
 30
0.0
  0
SPLINE
  5
14b
100
AcDbEntity
  8
0
 62
7
100
AcDbSpline
 70
8
 71
3
 72
8
 73
4
 74
0
 40
0
 40
0
 40
0
 40
0
 40
1
 40
1
 40
1
 40
1
 10
227.118333
 20
280.048321
 30
0.0
 10
226.206510
 20
280.048321
 30
0.0
 10
225.469097
 20
280.785739
 30
0.0
 10
225.469097
 20
281.697571
 30
0.0
  0
SPLINE
  5
14c
100
AcDbEntity
  8
0
 62
7
100
AcDbSpline
 70
8
 71
3
 72
8
 73
4
 74
0
 40
0
 40
0
 40
0
 40
0
 40
1
 40
1
 40
1
 40
1
 10
225.469097
 20
281.697571
 30
0.0
 10
225.469097
 20
282.609403
 30
0.0
 10
226.206510
 20
283.346765
 30
0.0
 10
227.118333
 20
283.346821
 30
0.0
  0
LWPOLYLINE
  5
14d
100
AcDbEntity
  8
0
 62
7
100
AcDbPolyline
 90
2
 70
0
 10
193.842569
 20
283.346821
 30
0.0
 10
193.842569
 20
283.346821
 30
0.0
  0
LWPOLYLINE
  5
14e
100
AcDbEntity
  8
0
 62
7
100
AcDbPolyline
 90
2
 70
0
 10
227.118333
 20
283.346821
 30
0.0
 10
227.118333
 20
283.346821
 30
0.0
  0
SPLINE
  5
14f
100
AcDbEntity
  8
0
 62
7
100
AcDbSpline
 70
8
 71
3
 72
8
 73
4
 74
0
 40
0
 40
0
 40
0
 40
0
 40
1
 40
1
 40
1
 40
1
 10
99.483333
 20
296.725904
 30
0.0
 10
100.395157
 20
296.725904
 30
0.0
 10
101.132569
 20
295.988492
 30
0.0
 10
101.132569
 20
295.076668
 30
0.0
  0
SPLINE
  5
150
100
AcDbEntity
  8
0
 62
7
100
AcDbSpline
 70
8
 71
3
 72
8
 73
4
 74
0
 40
0
 40
0
 40
0
 40
0
 40
1
 40
1
 40
1
 40
1
 10
101.132569
 20
295.076668
 30
0.0
 10
101.132569
 20
294.164845
 30
0.0
 10
100.395157
 20
293.427432
 30
0.0
 10
99.483333
 20
293.427432
 30
0.0
  0
SPLINE
  5
151
100
AcDbEntity
  8
0
 62
7
100
AcDbSpline
 70
8
 71
3
 72
8
 73
4
 74
0
 40
0
 40
0
 40
0
 40
0
 40
1
 40
1
 40
1
 40
1
 10
99.483333
 20
293.427432
 30
0.0
 10
98.571510
 20
293.427432
 30
0.0
 10
97.834125
 20
294.164845
 30
0.0
 10
97.834097
 20
295.076668
 30
0.0
  0
SPLINE
  5
152
100
AcDbEntity
  8
0
 62
7
100
AcDbSpline
 70
8
 71
3
 72
8
 73
4
 74
0
 40
0
 40
0
 40
0
 40
0
 40
1
 40
1
 40
1
 40
1
 10
97.834097
 20
295.076668
 30
0.0
 10
97.834097
 20
295.988492
 30
0.0
 10
98.571510
 20
296.725904
 30
0.0
 10
99.483333
 20
296.725904
 30
0.0
  0
LWPOLYLINE
  5
153
100
AcDbEntity
  8
0
 62
7
100
AcDbPolyline
 90
22
 70
0
 10
94.403333
 20
298.251668
 30
0.0
 10
94.403333
 20
291.901668
 30
0.0
 10
80.036458
 20
291.901668
 30
0.0
 10
80.036458
 20
264.975904
 30
0.0
 10
94.403333
 20
264.975904
 30
0.0
 10
94.403333
 20
258.625904
 30
0.0
 10
104.563333
 20
258.625904
 30
0.0
 10
104.563333
 20
264.975904
 30
0.0
 10
115.455347
 20
264.975904
 30
0.0
 10
115.455347
 20
258.625904
 30
0.0
 10
125.615347
 20
258.625904
 30
0.0
 10
125.615347
 20
264.975904
 30
0.0
 10
139.982222
 20
264.975904
 30
0.0
 10
139.982222
 20
291.901668
 30
0.0
 10
125.615347
 20
291.901668
 30
0.0
 10
125.615347
 20
298.251668
 30
0.0
 10
115.455347
 20
298.251668
 30
0.0
 10
115.455347
 20
291.901668
 30
0.0
 10
104.563333
 20
291.901668
 30
0.0
 10
104.563333
 20
298.251668
 30
0.0
 10
94.403333
 20
298.251668
 30
0.0
 10
94.403333
 20
298.251668
 30
0.0
  0
SPLINE
  5
154
100
AcDbEntity
  8
0
 62
7
100
AcDbSpline
 70
8
 71
3
 72
8
 73
4
 74
0
 40
0
 40
0
 40
0
 40
0
 40
1
 40
1
 40
1
 40
1
 10
120.535347
 20
296.725904
 30
0.0
 10
121.447179
 20
296.725904
 30
0.0
 10
122.184583
 20
295.988492
 30
0.0
 10
122.184583
 20
295.076668
 30
0.0
  0
SPLINE
  5
155
100
AcDbEntity
  8
0
 62
7
100
AcDbSpline
 70
8
 71
3
 72
8
 73
4
 74
0
 40
0
 40
0
 40
0
 40
0
 40
1
 40
1
 40
1
 40
1
 10
122.184583
 20
295.076668
 30
0.0
 10
122.184583
 20
294.164845
 30
0.0
 10
121.447179
 20
293.427432
 30
0.0
 10
120.535347
 20
293.427432
 30
0.0
  0
SPLINE
  5
156
100
AcDbEntity
  8
0
 62
7
100
AcDbSpline
 70
8
 71
3
 72
8
 73
4
 74
0
 40
0
 40
0
 40
0
 40
0
 40
1
 40
1
 40
1
 40
1
 10
120.535347
 20
293.427432
 30
0.0
 10
119.623515
 20
293.427432
 30
0.0
 10
118.886139
 20
294.164845
 30
0.0
 10
118.886111
 20
295.076668
 30
0.0
  0
SPLINE
  5
157
100
AcDbEntity
  8
0
 62
7
100
AcDbSpline
 70
8
 71
3
 72
8
 73
4
 74
0
 40
0
 40
0
 40
0
 40
0
 40
1
 40
1
 40
1
 40
1
 10
118.886111
 20
295.076668
 30
0.0
 10
118.886111
 20
295.988492
 30
0.0
 10
119.623515
 20
296.725904
 30
0.0
 10
120.535347
 20
296.725904
 30
0.0
  0
LWPOLYLINE
  5
158
100
AcDbEntity
  8
0
 62
7
100
AcDbPolyline
 90
2
 70
0
 10
99.483333
 20
296.725904
 30
0.0
 10
99.483333
 20
296.725904
 30
0.0
  0
SPLINE
  5
159
100
AcDbEntity
  8
0
 62
7
100
AcDbSpline
 70
8
 71
3
 72
8
 73
4
 74
0
 40
0
 40
0
 40
0
 40
0
 40
1
 40
1
 40
1
 40
1
 10
99.483333
 20
263.450141
 30
0.0
 10
100.395157
 20
263.450141
 30
0.0
 10
101.132569
 20
262.712728
 30
0.0
 10
101.132569
 20
261.800904
 30
0.0
  0
SPLINE
  5
15a
100
AcDbEntity
  8
0
 62
7
100
AcDbSpline
 70
8
 71
3
 72
8
 73
4
 74
0
 40
0
 40
0
 40
0
 40
0
 40
1
 40
1
 40
1
 40
1
 10
101.132569
 20
261.800904
 30
0.0
 10
101.132569
 20
260.889081
 30
0.0
 10
100.395157
 20
260.151668
 30
0.0
 10
99.483333
 20
260.151668
 30
0.0
  0
SPLINE
  5
15b
100
AcDbEntity
  8
0
 62
7
100
AcDbSpline
 70
8
 71
3
 72
8
 73
4
 74
0
 40
0
 40
0
 40
0
 40
0
 40
1
 40
1
 40
1
 40
1
 10
99.483333
 20
260.151668
 30
0.0
 10
98.571510
 20
260.151668
 30
0.0
 10
97.834125
 20
260.889081
 30
0.0
 10
97.834097
 20
261.800904
 30
0.0
  0
SPLINE
  5
15c
100
AcDbEntity
  8
0
 62
7
100
AcDbSpline
 70
8
 71
3
 72
8
 73
4
 74
0
 40
0
 40
0
 40
0
 40
0
 40
1
 40
1
 40
1
 40
1
 10
97.834097
 20
261.800904
 30
0.0
 10
97.834097
 20
262.712728
 30
0.0
 10
98.571510
 20
263.450141
 30
0.0
 10
99.483333
 20
263.450141
 30
0.0
  0
LWPOLYLINE
  5
15d
100
AcDbEntity
  8
0
 62
7
100
AcDbPolyline
 90
2
 70
0
 10
120.535347
 20
296.725904
 30
0.0
 10
120.535347
 20
296.725904
 30
0.0
  0
SPLINE
  5
15e
100
AcDbEntity
  8
0
 62
7
100
AcDbSpline
 70
8
 71
3
 72
8
 73
4
 74
0
 40
0
 40
0
 40
0
 40
0
 40
1
 40
1
 40
1
 40
1
 10
120.535347
 20
263.450141
 30
0.0
 10
121.447179
 20
263.450141
 30
0.0
 10
122.184583
 20
262.712728
 30
0.0
 10
122.184583
 20
261.800904
 30
0.0
  0
SPLINE
  5
15f
100
AcDbEntity
  8
0
 62
7
100
AcDbSpline
 70
8
 71
3
 72
8
 73
4
 74
0
 40
0
 40
0
 40
0
 40
0
 40
1
 40
1
 40
1
 40
1
 10
122.184583
 20
261.800904
 30
0.0
 10
122.184583
 20
260.889081
 30
0.0
 10
121.447179
 20
260.151668
 30
0.0
 10
120.535347
 20
260.151668
 30
0.0
  0
SPLINE
  5
160
100
AcDbEntity
  8
0
 62
7
100
AcDbSpline
 70
8
 71
3
 72
8
 73
4
 74
0
 40
0
 40
0
 40
0
 40
0
 40
1
 40
1
 40
1
 40
1
 10
120.535347
 20
260.151668
 30
0.0
 10
119.623515
 20
260.151668
 30
0.0
 10
118.886139
 20
260.889081
 30
0.0
 10
118.886111
 20
261.800904
 30
0.0
  0
SPLINE
  5
161
100
AcDbEntity
  8
0
 62
7
100
AcDbSpline
 70
8
 71
3
 72
8
 73
4
 74
0
 40
0
 40
0
 40
0
 40
0
 40
1
 40
1
 40
1
 40
1
 10
118.886111
 20
261.800904
 30
0.0
 10
118.886111
 20
262.712728
 30
0.0
 10
119.623515
 20
263.450141
 30
0.0
 10
120.535347
 20
263.450141
 30
0.0
  0
LWPOLYLINE
  5
162
100
AcDbEntity
  8
0
 62
7
100
AcDbPolyline
 90
2
 70
0
 10
99.483333
 20
263.450141
 30
0.0
 10
99.483333
 20
263.450141
 30
0.0
  0
LWPOLYLINE
  5
163
100
AcDbEntity
  8
0
 62
7
100
AcDbPolyline
 90
2
 70
0
 10
120.535347
 20
263.450141
 30
0.0
 10
120.535347
 20
263.450141
 30
0.0
  0
SPLINE
  5
164
100
AcDbEntity
  8
0
 62
7
100
AcDbSpline
 70
8
 71
3
 72
8
 73
4
 74
0
 40
0
 40
0
 40
0
 40
0
 40
1
 40
1
 40
1
 40
1
 10
243.513681
 20
295.411807
 30
0.0
 10
244.425504
 20
295.411807
 30
0.0
 10
245.162917
 20
294.674394
 30
0.0
 10
245.162917
 20
293.762571
 30
0.0
  0
SPLINE
  5
165
100
AcDbEntity
  8
0
 62
7
100
AcDbSpline
 70
8
 71
3
 72
8
 73
4
 74
0
 40
0
 40
0
 40
0
 40
0
 40
1
 40
1
 40
1
 40
1
 10
245.162917
 20
293.762571
 30
0.0
 10
245.162917
 20
292.850748
 30
0.0
 10
244.425504
 20
292.113349
 30
0.0
 10
243.513681
 20
292.113321
 30
0.0
  0
SPLINE
  5
166
100
AcDbEntity
  8
0
 62
7
100
AcDbSpline
 70
8
 71
3
 72
8
 73
4
 74
0
 40
0
 40
0
 40
0
 40
0
 40
1
 40
1
 40
1
 40
1
 10
243.513681
 20
292.113321
 30
0.0
 10
242.601857
 20
292.113321
 30
0.0
 10
241.864444
 20
292.850748
 30
0.0
 10
241.864444
 20
293.762571
 30
0.0
  0
SPLINE
  5
167
100
AcDbEntity
  8
0
 62
7
100
AcDbSpline
 70
8
 71
3
 72
8
 73
4
 74
0
 40
0
 40
0
 40
0
 40
0
 40
1
 40
1
 40
1
 40
1
 10
241.864444
 20
293.762571
 30
0.0
 10
241.864444
 20
294.674394
 30
0.0
 10
242.601857
 20
295.411807
 30
0.0
 10
243.513681
 20
295.411807
 30
0.0
  0
LWPOLYLINE
  5
168
100
AcDbEntity
  8
0
 62
7
100
AcDbPolyline
 90
22
 70
0
 10
246.688681
 20
305.827571
 30
0.0
 10
246.688681
 20
298.842571
 30
0.0
 10
240.338681
 20
298.842571
 30
0.0
 10
240.338681
 20
288.682571
 30
0.0
 10
246.688681
 20
288.682571
 30
0.0
 10
246.688681
 20
286.777571
 30
0.0
 10
240.338681
 20
286.777571
 30
0.0
 10
240.338681
 20
276.617557
 30
0.0
 10
246.688681
 20
276.617557
 30
0.0
 10
246.688681
 20
269.632557
 30
0.0
 10
273.614444
 20
269.632557
 30
0.0
 10
273.614444
 20
276.617585
 30
0.0
 10
279.964444
 20
276.617585
 30
0.0
 10
279.964444
 20
286.777571
 30
0.0
 10
273.614444
 20
286.777571
 30
0.0
 10
273.614444
 20
288.682571
 30
0.0
 10
279.964444
 20
288.682571
 30
0.0
 10
279.964444
 20
298.842571
 30
0.0
 10
273.614444
 20
298.842571
 30
0.0
 10
273.614444
 20
305.827571
 30
0.0
 10
246.688681
 20
305.827571
 30
0.0
 10
246.688681
 20
305.827571
 30
0.0
  0
SPLINE
  5
169
100
AcDbEntity
  8
0
 62
7
100
AcDbSpline
 70
8
 71
3
 72
8
 73
4
 74
0
 40
0
 40
0
 40
0
 40
0
 40
1
 40
1
 40
1
 40
1
 10
276.789444
 20
295.411807
 30
0.0
 10
277.701268
 20
295.411807
 30
0.0
 10
278.438681
 20
294.674394
 30
0.0
 10
278.438681
 20
293.762571
 30
0.0
  0
SPLINE
  5
16a
100
AcDbEntity
  8
0
 62
7
100
AcDbSpline
 70
8
 71
3
 72
8
 73
4
 74
0
 40
0
 40
0
 40
0
 40
0
 40
1
 40
1
 40
1
 40
1
 10
278.438681
 20
293.762571
 30
0.0
 10
278.438681
 20
292.850748
 30
0.0
 10
277.701268
 20
292.113349
 30
0.0
 10
276.789444
 20
292.113321
 30
0.0
  0
SPLINE
  5
16b
100
AcDbEntity
  8
0
 62
7
100
AcDbSpline
 70
8
 71
3
 72
8
 73
4
 74
0
 40
0
 40
0
 40
0
 40
0
 40
1
 40
1
 40
1
 40
1
 10
276.789444
 20
292.113321
 30
0.0
 10
275.877621
 20
292.113321
 30
0.0
 10
275.140208
 20
292.850748
 30
0.0
 10
275.140208
 20
293.762571
 30
0.0
  0
SPLINE
  5
16c
100
AcDbEntity
  8
0
 62
7
100
AcDbSpline
 70
8
 71
3
 72
8
 73
4
 74
0
 40
0
 40
0
 40
0
 40
0
 40
1
 40
1
 40
1
 40
1
 10
275.140208
 20
293.762571
 30
0.0
 10
275.140208
 20
294.674394
 30
0.0
 10
275.877621
 20
295.411807
 30
0.0
 10
276.789444
 20
295.411807
 30
0.0
  0
LWPOLYLINE
  5
16d
100
AcDbEntity
  8
0
 62
7
100
AcDbPolyline
 90
2
 70
0
 10
243.513681
 20
295.411807
 30
0.0
 10
243.513681
 20
295.411807
 30
0.0
  0
SPLINE
  5
16e
100
AcDbEntity
  8
0
 62
7
100
AcDbSpline
 70
8
 71
3
 72
8
 73
4
 74
0
 40
0
 40
0
 40
0
 40
0
 40
1
 40
1
 40
1
 40
1
 10
243.513681
 20
283.346821
 30
0.0
 10
244.425504
 20
283.346821
 30
0.0
 10
245.162917
 20
282.609403
 30
0.0
 10
245.162917
 20
281.697571
 30
0.0
  0
SPLINE
  5
16f
100
AcDbEntity
  8
0
 62
7
100
AcDbSpline
 70
8
 71
3
 72
8
 73
4
 74
0
 40
0
 40
0
 40
0
 40
0
 40
1
 40
1
 40
1
 40
1
 10
245.162917
 20
281.697571
 30
0.0
 10
245.162917
 20
280.785739
 30
0.0
 10
244.425504
 20
280.048377
 30
0.0
 10
243.513681
 20
280.048321
 30
0.0
  0
SPLINE
  5
170
100
AcDbEntity
  8
0
 62
7
100
AcDbSpline
 70
8
 71
3
 72
8
 73
4
 74
0
 40
0
 40
0
 40
0
 40
0
 40
1
 40
1
 40
1
 40
1
 10
243.513681
 20
280.048321
 30
0.0
 10
242.601857
 20
280.048321
 30
0.0
 10
241.864444
 20
280.785739
 30
0.0
 10
241.864444
 20
281.697571
 30
0.0
  0
SPLINE
  5
171
100
AcDbEntity
  8
0
 62
7
100
AcDbSpline
 70
8
 71
3
 72
8
 73
4
 74
0
 40
0
 40
0
 40
0
 40
0
 40
1
 40
1
 40
1
 40
1
 10
241.864444
 20
281.697571
 30
0.0
 10
241.864444
 20
282.609403
 30
0.0
 10
242.601857
 20
283.346765
 30
0.0
 10
243.513681
 20
283.346821
 30
0.0
  0
LWPOLYLINE
  5
172
100
AcDbEntity
  8
0
 62
7
100
AcDbPolyline
 90
2
 70
0
 10
276.789444
 20
295.411807
 30
0.0
 10
276.789444
 20
295.411807
 30
0.0
  0
SPLINE
  5
173
100
AcDbEntity
  8
0
 62
7
100
AcDbSpline
 70
8
 71
3
 72
8
 73
4
 74
0
 40
0
 40
0
 40
0
 40
0
 40
1
 40
1
 40
1
 40
1
 10
276.789444
 20
283.346821
 30
0.0
 10
277.701268
 20
283.346821
 30
0.0
 10
278.438681
 20
282.609403
 30
0.0
 10
278.438681
 20
281.697571
 30
0.0
  0
SPLINE
  5
174
100
AcDbEntity
  8
0
 62
7
100
AcDbSpline
 70
8
 71
3
 72
8
 73
4
 74
0
 40
0
 40
0
 40
0
 40
0
 40
1
 40
1
 40
1
 40
1
 10
278.438681
 20
281.697571
 30
0.0
 10
278.438681
 20
280.785739
 30
0.0
 10
277.701268
 20
280.048349
 30
0.0
 10
276.789444
 20
280.048321
 30
0.0
  0
SPLINE
  5
175
100
AcDbEntity
  8
0
 62
7
100
AcDbSpline
 70
8
 71
3
 72
8
 73
4
 74
0
 40
0
 40
0
 40
0
 40
0
 40
1
 40
1
 40
1
 40
1
 10
276.789444
 20
280.048321
 30
0.0
 10
275.877621
 20
280.048321
 30
0.0
 10
275.140208
 20
280.785739
 30
0.0
 10
275.140208
 20
281.697571
 30
0.0
  0
SPLINE
  5
176
100
AcDbEntity
  8
0
 62
7
100
AcDbSpline
 70
8
 71
3
 72
8
 73
4
 74
0
 40
0
 40
0
 40
0
 40
0
 40
1
 40
1
 40
1
 40
1
 10
275.140208
 20
281.697571
 30
0.0
 10
275.140208
 20
282.609403
 30
0.0
 10
275.877621
 20
283.346793
 30
0.0
 10
276.789444
 20
283.346821
 30
0.0
  0
LWPOLYLINE
  5
177
100
AcDbEntity
  8
0
 62
7
100
AcDbPolyline
 90
2
 70
0
 10
243.513681
 20
283.346821
 30
0.0
 10
243.513681
 20
283.346821
 30
0.0
  0
LWPOLYLINE
  5
178
100
AcDbEntity
  8
0
 62
7
100
AcDbPolyline
 90
2
 70
0
 10
276.789444
 20
283.346821
 30
0.0
 10
276.789444
 20
283.346821
 30
0.0
  0
LWPOLYLINE
  5
179
100
AcDbEntity
  8
0
 62
7
100
AcDbPolyline
 90
134
 70
0
 10
94.473889
 20
250.556099
 30
0.0
 10
94.473889
 20
243.571099
 30
0.0
 10
96.061389
 20
243.571099
 30
0.0
 10
96.061389
 20
240.140349
 30
0.0
 10
98.539653
 20
240.140349
 30
0.0
 10
98.539653
 20
241.410349
 30
0.0
 10
101.079653
 20
241.410349
 30
0.0
 10
101.079653
 20
240.140349
 30
0.0
 10
105.145417
 20
240.140349
 30
0.0
 10
105.145417
 20
236.841848
 30
0.0
 10
101.079653
 20
236.841848
 30
0.0
 10
101.079653
 20
235.571848
 30
0.0
 10
98.539653
 20
235.571848
 30
0.0
 10
98.539653
 20
236.841848
 30
0.0
 10
96.061389
 20
236.841848
 30
0.0
 10
96.061389
 20
233.411099
 30
0.0
 10
94.473889
 20
233.411099
 30
0.0
 10
94.473889
 20
231.506099
 30
0.0
 10
96.061389
 20
231.506099
 30
0.0
 10
96.061389
 20
228.075377
 30
0.0
 10
98.539653
 20
228.075377
 30
0.0
 10
98.539653
 20
229.345377
 30
0.0
 10
101.079653
 20
229.345377
 30
0.0
 10
101.079653
 20
228.075377
 30
0.0
 10
105.145417
 20
228.075377
 30
0.0
 10
105.145417
 20
224.776848
 30
0.0
 10
101.079653
 20
224.776848
 30
0.0
 10
101.079653
 20
223.506848
 30
0.0
 10
98.539653
 20
223.506848
 30
0.0
 10
98.539653
 20
224.776848
 30
0.0
 10
96.061389
 20
224.776848
 30
0.0
 10
96.061389
 20
221.346099
 30
0.0
 10
94.473889
 20
221.346099
 30
0.0
 10
94.473889
 20
214.361099
 30
0.0
 10
110.428264
 20
214.361099
 30
0.0
 10
110.428264
 20
215.948599
 30
0.0
 10
113.859028
 20
215.948599
 30
0.0
 10
113.859028
 20
218.426848
 30
0.0
 10
112.589028
 20
218.426848
 30
0.0
 10
112.589028
 20
220.966848
 30
0.0
 10
113.859028
 20
220.966848
 30
0.0
 10
113.859028
 20
225.032626
 30
0.0
 10
117.157500
 20
225.032626
 30
0.0
 10
117.157500
 20
220.966848
 30
0.0
 10
118.427500
 20
220.966848
 30
0.0
 10
118.427500
 20
218.426848
 30
0.0
 10
117.157500
 20
218.426848
 30
0.0
 10
117.157500
 20
215.948599
 30
0.0
 10
120.588264
 20
215.948599
 30
0.0
 10
120.588264
 20
214.361099
 30
0.0
 10
131.480278
 20
214.361099
 30
0.0
 10
131.480278
 20
215.948599
 30
0.0
 10
134.911042
 20
215.948599
 30
0.0
 10
134.911042
 20
218.426848
 30
0.0
 10
133.641042
 20
218.426848
 30
0.0
 10
133.641042
 20
220.966848
 30
0.0
 10
134.911042
 20
220.966848
 30
0.0
 10
134.911042
 20
225.032626
 30
0.0
 10
138.209514
 20
225.032626
 30
0.0
 10
138.209514
 20
220.966848
 30
0.0
 10
139.479514
 20
220.966848
 30
0.0
 10
139.479514
 20
218.426848
 30
0.0
 10
138.209514
 20
218.426848
 30
0.0
 10
138.209514
 20
215.948599
 30
0.0
 10
141.640278
 20
215.948599
 30
0.0
 10
141.640278
 20
214.361099
 30
0.0
 10
157.594653
 20
214.361099
 30
0.0
 10
157.594653
 20
221.346099
 30
0.0
 10
156.007153
 20
221.346099
 30
0.0
 10
156.007153
 20
224.776848
 30
0.0
 10
153.528889
 20
224.776848
 30
0.0
 10
153.528889
 20
223.506848
 30
0.0
 10
150.988889
 20
223.506848
 30
0.0
 10
150.988889
 20
224.776848
 30
0.0
 10
146.923125
 20
224.776848
 30
0.0
 10
146.923125
 20
228.075377
 30
0.0
 10
150.988889
 20
228.075377
 30
0.0
 10
150.988889
 20
229.345377
 30
0.0
 10
153.528889
 20
229.345377
 30
0.0
 10
153.528889
 20
228.075377
 30
0.0
 10
156.007153
 20
228.075377
 30
0.0
 10
156.007153
 20
231.506099
 30
0.0
 10
157.594653
 20
231.506099
 30
0.0
 10
157.594653
 20
233.411099
 30
0.0
 10
156.007153
 20
233.411099
 30
0.0
 10
156.007153
 20
236.841848
 30
0.0
 10
153.528889
 20
236.841848
 30
0.0
 10
153.528889
 20
235.571848
 30
0.0
 10
150.988889
 20
235.571848
 30
0.0
 10
150.988889
 20
236.841848
 30
0.0
 10
146.923125
 20
236.841848
 30
0.0
 10
146.923125
 20
240.140349
 30
0.0
 10
150.988889
 20
240.140349
 30
0.0
 10
150.988889
 20
241.410349
 30
0.0
 10
153.528889
 20
241.410349
 30
0.0
 10
153.528889
 20
240.140349
 30
0.0
 10
156.007153
 20
240.140349
 30
0.0
 10
156.007153
 20
243.571099
 30
0.0
 10
157.594653
 20
243.571099
 30
0.0
 10
157.594653
 20
250.556099
 30
0.0
 10
141.640278
 20
250.556099
 30
0.0
 10
141.640278
 20
248.968599
 30
0.0
 10
138.209514
 20
248.968599
 30
0.0
 10
138.209514
 20
246.490349
 30
0.0
 10
139.479514
 20
246.490349
 30
0.0
 10
139.479514
 20
243.950349
 30
0.0
 10
138.209514
 20
243.950349
 30
0.0
 10
138.209514
 20
239.884571
 30
0.0
 10
134.911042
 20
239.884571
 30
0.0
 10
134.911042
 20
243.950349
 30
0.0
 10
133.641042
 20
243.950349
 30
0.0
 10
133.641042
 20
246.490349
 30
0.0
 10
134.911042
 20
246.490349
 30
0.0
 10
134.911042
 20
248.968599
 30
0.0
 10
131.480278
 20
248.968599
 30
0.0
 10
131.480278
 20
250.556099
 30
0.0
 10
120.588264
 20
250.556099
 30
0.0
 10
120.588264
 20
248.968599
 30
0.0
 10
117.157500
 20
248.968599
 30
0.0
 10
117.157500
 20
246.490349
 30
0.0
 10
118.427500
 20
246.490349
 30
0.0
 10
118.427500
 20
243.950349
 30
0.0
 10
117.157500
 20
243.950349
 30
0.0
 10
117.157500
 20
239.884571
 30
0.0
 10
113.859028
 20
239.884571
 30
0.0
 10
113.859028
 20
243.950349
 30
0.0
 10
112.589028
 20
243.950349
 30
0.0
 10
112.589028
 20
246.490349
 30
0.0
 10
113.859028
 20
246.490349
 30
0.0
 10
113.859028
 20
248.968599
 30
0.0
 10
110.428264
 20
248.968599
 30
0.0
 10
110.428264
 20
250.556099
 30
0.0
 10
94.473889
 20
250.556099
 30
0.0
 10
94.473889
 20
250.556099
 30
0.0
  0
ENDSEC
  0
SECTION
  2
OBJECTS
  0
DICTIONARY
  5
C
330
0
100
AcDbDictionary
  3
ACAD_GROUP
350
D
  3
ACAD_MLINESTYLE
350
17
  0
DICTIONARY
  5
D
330
C
100
AcDbDictionary
  0
DICTIONARY
  5
1A
330
C
100
AcDbDictionary
  0
DICTIONARY
  5
17
330
C
100
AcDbDictionary
  3
STANDARD
350
18
  0
DICTIONARY
  5
19
330
C
100
AcDbDictionary
  0
ENDSEC
  0
EOF
