<?xml version="1.0" encoding="UTF-8" standalone="no"?>
<!-- Created with Inkscape (http://www.inkscape.org/) -->

<svg
   xmlns:dc="http://purl.org/dc/elements/1.1/"
   xmlns:cc="http://creativecommons.org/ns#"
   xmlns:rdf="http://www.w3.org/1999/02/22-rdf-syntax-ns#"
   xmlns:svg="http://www.w3.org/2000/svg"
   xmlns="http://www.w3.org/2000/svg"
   xmlns:sodipodi="http://sodipodi.sourceforge.net/DTD/sodipodi-0.dtd"
   xmlns:inkscape="http://www.inkscape.org/namespaces/inkscape"
   width="1620"
   height="1080"
   id="svg2"
   version="1.1"
   inkscape:version="0.47pre2 r22153"
   sodipodi:docname="rack_gaurd_fused_2A.svg">
  <defs
     id="defs4">
    <inkscape:perspective
       sodipodi:type="inkscape:persp3d"
       inkscape:vp_x="0 : 526.18109 : 1"
       inkscape:vp_y="0 : 1000 : 0"
       inkscape:vp_z="744.09448 : 526.18109 : 1"
       inkscape:persp3d-origin="372.04724 : 350.78739 : 1"
       id="perspective10" />
    <inkscape:perspective
       id="perspective3627"
       inkscape:persp3d-origin="0.5 : 0.33333333 : 1"
       inkscape:vp_z="1 : 0.5 : 1"
       inkscape:vp_y="0 : 1000 : 0"
       inkscape:vp_x="0 : 0.5 : 1"
       sodipodi:type="inkscape:persp3d" />
    <inkscape:perspective
       id="perspective3656"
       inkscape:persp3d-origin="0.5 : 0.33333333 : 1"
       inkscape:vp_z="1 : 0.5 : 1"
       inkscape:vp_y="0 : 1000 : 0"
       inkscape:vp_x="0 : 0.5 : 1"
       sodipodi:type="inkscape:persp3d" />
    <inkscape:perspective
       id="perspective3805"
       inkscape:persp3d-origin="0.5 : 0.33333333 : 1"
       inkscape:vp_z="1 : 0.5 : 1"
       inkscape:vp_y="0 : 1000 : 0"
       inkscape:vp_x="0 : 0.5 : 1"
       sodipodi:type="inkscape:persp3d" />
  </defs>
  <sodipodi:namedview
     id="base"
     pagecolor="#ffffff"
     bordercolor="#666666"
     borderopacity="1.0"
     inkscape:pageopacity="0.0"
     inkscape:pageshadow="2"
     inkscape:zoom="1"
     inkscape:cx="987.8131"
     inkscape:cy="873.22951"
     inkscape:document-units="in"
     inkscape:current-layer="layer1"
     showgrid="true"
     inkscape:window-width="1440"
     inkscape:window-height="783"
     inkscape:window-x="1920"
     inkscape:window-y="22"
     inkscape:window-maximized="0"
     units="in"
     showguides="true"
     inkscape:guide-bbox="true"
     inkscape:snap-global="true">
    <inkscape:grid
       type="xygrid"
       id="grid2845" />
  </sodipodi:namedview>
  <metadata
     id="metadata7">
    <rdf:RDF>
      <cc:Work
         rdf:about="">
        <dc:format>image/svg+xml</dc:format>
        <dc:type
           rdf:resource="http://purl.org/dc/dcmitype/StillImage" />
        <dc:title></dc:title>
      </cc:Work>
    </rdf:RDF>
  </metadata>
  <g
     inkscape:label="Layer 1"
     inkscape:groupmode="layer"
     id="layer1"
     transform="translate(0,27.640998)">
    <path
       style="fill:#ffffff;stroke:#000000;stroke-width:0;stroke-miterlimit:4;stroke-opacity:1"
       d="m 30.375,11.859004 0,314.999996 22.5,0 0,-22.5 0,-0.5 0.03125,0 c 0.262272,-5.98056 5.173547,-10.75 11.21875,-10.75 6.045203,0 10.956478,4.76944 11.21875,10.75 l 0.03125,0 0,0.5 0,22.5 45,0 0,-314.999996 -45,0 0,22.5 0,0.5 -0.03125,0 c -0.262272,5.980558 -5.173547,10.75 -11.21875,10.75 -6.045203,0 -10.956478,-4.769442 -11.21875,-10.75 l -0.03125,0 0,-0.5 0,-22.5 -22.5,0 z m 73.125,45 5.625,0 0,67.499996 -5.625,0 0,-67.499996 z m 0,157.499996 5.625,0 0,67.5 -5.625,0 0,-67.5 z"
       id="rect3743" />
    <path
       style="fill:#ffffff;stroke:#000000;stroke-width:0;stroke-miterlimit:4;stroke-opacity:1;stroke-dasharray:none"
       d="m 152,13.859008 0,45 -5.625,0 0,67.499992 5.625,0 0,90 -5.625,0 0,67.5 5.625,0 0,45 281.25,0 0,-314.999992 -281.25,0 z m 22.5,5.625 67.5,0 0,5.625 -67.5,0 0,-5.625 z m 157.5,0 67.5,0 0,5.625 -67.5,0 0,-5.625 z m 90,39.375 5.625,0 0,67.499992 -5.625,0 0,-67.499992 z M 298.25,126.359 c 24.85282,0 45,20.14718 45,45 0,24.85282 -20.14718,45 -45,45 -24.85282,0 -45,-20.14718 -45,-45 0,-24.85282 20.14718,-45 45,-45 z m 123.75,90 5.625,0 0,67.5 -5.625,0 0,-67.5 z m -247.5,101.25 67.5,0 0,5.625 -67.5,0 0,-5.625 z m 157.5,0 67.5,0 0,5.625 -67.5,0 0,-5.625 z"
       id="path2861" />
    <path
       style="fill:#ffffff;stroke:#000000;stroke-width:0;stroke-miterlimit:4;stroke-opacity:1;stroke-dasharray:none"
       d="m 31.5,360.359 0,45 -5.625,0 0,67.5 5.625,0 0,90 -5.625,0 0,67.5 5.625,0 0,45 1541.25,0 0,-45 5.625,0 0,-67.5 -5.625,0 0,-90 5.625,0 0,-67.5 -5.625,0 0,-45 -1541.25,0 z m 191.25,180 c 24.85282,0 45,20.14718 45,45 0,24.85282 -20.14718,45 -45,45 -24.85282,0 -45,-20.14718 -45,-45 0,-24.85282 20.14718,-45 45,-45 z m 641.25,0 c 24.8528,0 45,20.14718 45,45 0,24.85282 -20.1472,45 -45,45 -24.8528,0 -45,-20.14718 -45,-45 0,-24.85282 20.1472,-45 45,-45 z"
       id="path2873" />
    <path
       style="fill:#ffffff;stroke:#000000;stroke-width:0;stroke-miterlimit:4;stroke-opacity:1"
       d="m 21.125,965.859 5.625,0 0,22.5 1541.25,0 0,-22.5 5.625,0 0,-67.5 -5.625,0 0,-90 5.625,0 0,-67.5 -5.625,0 0,-22.5 -1541.25,0 0,22.5 -5.625,0 0,67.5 5.625,0 0,90 -5.625,0 0,67.5 z"
       id="rect2883" />
    <path
       id="path4126"
       d="m 466.875,17.85901 0,314.99999 22.5,0 0,-22.5 0,-0.5 0.0312,0 c 0.26227,-5.98056 5.17355,-10.75 11.21875,-10.75 6.0452,0 10.95648,4.76944 11.21875,10.75 l 0.0312,0 0,0.5 0,22.5 45,0 0,-314.99999 -45,0 0,22.5 0,0.5 -0.0312,0 c -0.26227,5.980558 -5.17355,10.75 -11.21875,10.75 -6.0452,0 -10.95648,-4.769442 -11.21875,-10.75 l -0.0312,0 0,-0.5 0,-22.5 -22.5,0 z m 73.125,45 5.625,0 0,67.49999 -5.625,0 0,-67.49999 z m 0,157.49999 5.625,0 0,67.5 -5.625,0 0,-67.5 z"
       style="fill:#ffffff;stroke:#000000;stroke-width:0;stroke-miterlimit:4;stroke-opacity:1" />
    <path
       id="path4128"
       d="m 588.375,11.859012 0,45 -5.625,0 0,67.499988 5.625,0 0,90 -5.625,0 0,67.5 5.625,0 0,45 281.25,0 0,-314.999988 -281.25,0 z m 22.5,5.625 67.5,0 0,5.625 -67.5,0 0,-5.625 z m 157.5,0 67.5,0 0,5.625 -67.5,0 0,-5.625 z m 90,39.375 5.625,0 0,67.499988 -5.625,0 0,-67.499988 z M 734.625,124.359 c 24.85282,0 45,20.14718 45,45 0,24.85282 -20.14718,45 -45,45 -24.85282,0 -45,-20.14718 -45,-45 0,-24.85282 20.14718,-45 45,-45 z m 123.75,90 5.625,0 0,67.5 -5.625,0 0,-67.5 z m -247.5,101.25 67.5,0 0,5.625 -67.5,0 0,-5.625 z m 157.5,0 67.5,0 0,5.625 -67.5,0 0,-5.625 z"
       style="fill:#ffffff;stroke:#000000;stroke-width:0;stroke-miterlimit:4;stroke-opacity:1;stroke-dasharray:none" />
    <rect
       style="fill:#ffffff;stroke:#000000;stroke-width:0;stroke-miterlimit:4;stroke-opacity:1;stroke-dasharray:none"
       id="rect4150"
       width="208"
       height="80"
       x="73.994003"
       y="-984.63501"
       transform="matrix(0,1,-1,0,0,0)" />
    <text
       xml:space="preserve"
       style="font-size:12px;font-style:normal;font-weight:normal;fill:#000000;fill-opacity:1;stroke:none;font-family:Bitstream Vera Sans"
       x="83.493996"
       y="-965.13501"
       id="text4156"
       transform="matrix(0,1,-1,0,0,0)"><tspan
         sodipodi:role="line"
         id="tspan4158"
         x="83.493996"
         y="-965.13501">M3</tspan></text>
    <text
       id="text4160"
       y="-965.13501"
       x="105.494"
       style="font-size:12px;font-style:normal;font-weight:normal;fill:#000000;fill-opacity:1;stroke:none;font-family:Bitstream Vera Sans"
       xml:space="preserve"
       transform="matrix(0,1,-1,0,0,0)"><tspan
         y="-965.13501"
         x="105.494"
         id="tspan4162"
         sodipodi:role="line">M4</tspan></text>
    <text
       xml:space="preserve"
       style="font-size:12px;font-style:normal;font-weight:normal;fill:#000000;fill-opacity:1;stroke:none;font-family:Bitstream Vera Sans"
       x="131.49399"
       y="-965.13501"
       id="text4164"
       transform="matrix(0,1,-1,0,0,0)"><tspan
         sodipodi:role="line"
         id="tspan4166"
         x="131.49399"
         y="-965.13501">M5</tspan></text>
    <text
       id="text4168"
       y="-965.13501"
       x="161.49399"
       style="font-size:12px;font-style:normal;font-weight:normal;fill:#000000;fill-opacity:1;stroke:none;font-family:Bitstream Vera Sans"
       xml:space="preserve"
       transform="matrix(0,1,-1,0,0,0)"><tspan
         y="-965.13501"
         x="161.49399"
         sodipodi:role="line"
         id="tspan4190">M6</tspan></text>
    <text
       xml:space="preserve"
       style="font-size:12px;font-style:normal;font-weight:normal;fill:#000000;fill-opacity:1;stroke:none;font-family:Bitstream Vera Sans"
       x="195.49399"
       y="-965.13501"
       id="text4172"
       transform="matrix(0,1,-1,0,0,0)"><tspan
         sodipodi:role="line"
         id="tspan4174"
         x="195.49399"
         y="-965.13501">M8</tspan></text>
    <text
       id="text4176"
       y="-965.13501"
       x="237.49399"
       style="font-size:12px;font-style:normal;font-weight:normal;fill:#000000;fill-opacity:1;stroke:none;font-family:Bitstream Vera Sans"
       xml:space="preserve"
       transform="matrix(0,1,-1,0,0,0)"><tspan
         y="-965.13501"
         x="237.49399"
         id="tspan4178"
         sodipodi:role="line">M10</tspan></text>
    <path
       sodipodi:type="arc"
       style="fill:#ffffff;stroke:#000000;stroke-width:0;stroke-miterlimit:4;stroke-opacity:1;stroke-dasharray:none"
       id="path4182"
       sodipodi:cx="948"
       sodipodi:cy="268"
       sodipodi:rx="4"
       sodipodi:ry="4"
       d="m 952,268 a 4,4 0 1 1 -8,0 4,4 0 1 1 8,0 z"
       transform="matrix(0,1.445625,-1.445625,0,1324.5625,-1278.741)" />
    <path
       transform="matrix(0,1.92375,-1.92375,0,1452.7,-1709.916)"
       d="m 952,268 a 4,4 0 1 1 -8,0 4,4 0 1 1 8,0 z"
       sodipodi:ry="4"
       sodipodi:rx="4"
       sodipodi:cy="268"
       sodipodi:cx="948"
       id="path4184"
       style="fill:#ffffff;stroke:#000000;stroke-width:0;stroke-miterlimit:4;stroke-opacity:1;stroke-dasharray:none"
       sodipodi:type="arc" />
    <path
       sodipodi:type="arc"
       style="fill:#ffffff;stroke:#000000;stroke-width:0;stroke-miterlimit:4;stroke-opacity:1;stroke-dasharray:none"
       id="path4186"
       sodipodi:cx="948"
       sodipodi:cy="268"
       sodipodi:rx="4"
       sodipodi:ry="4"
       d="m 952,268 a 4,4 0 1 1 -8,0 4,4 0 1 1 8,0 z"
       transform="matrix(0,2.28375,-2.28375,0,1549.18,-2024.636)" />
    <path
       transform="matrix(0,2.8125,-2.8125,0,1690.885,-2496.006)"
       d="m 952,268 a 4,4 0 1 1 -8,0 4,4 0 1 1 8,0 z"
       sodipodi:ry="4"
       sodipodi:rx="4"
       sodipodi:cy="268"
       sodipodi:cx="948"
       id="path4188"
       style="fill:#ffffff;stroke:#000000;stroke-width:0;stroke-miterlimit:4;stroke-opacity:1;stroke-dasharray:none"
       sodipodi:type="arc" />
    <path
       sodipodi:type="arc"
       style="fill:#ffffff;stroke:#000000;stroke-width:0;stroke-miterlimit:4;stroke-opacity:1;stroke-dasharray:none"
       id="path4194"
       sodipodi:cx="948"
       sodipodi:cy="268"
       sodipodi:rx="4"
       sodipodi:ry="4"
       d="m 952,268 a 4,4 0 1 1 -8,0 4,4 0 1 1 8,0 z"
       transform="matrix(0,4.21875,-4.21875,0,2067.76,-3794.756)" />
    <path
       transform="matrix(0,4.91625,-4.91625,0,2254.69,-4410.776)"
       d="m 952,268 a 4,4 0 1 1 -8,0 4,4 0 1 1 8,0 z"
       sodipodi:ry="4"
       sodipodi:rx="4"
       sodipodi:cy="268"
       sodipodi:cx="948"
       id="path4196"
       style="fill:#ffffff;stroke:#000000;stroke-width:0;stroke-miterlimit:4;stroke-opacity:1;stroke-dasharray:none"
       sodipodi:type="arc" />
  </g>
</svg>
