999
DXF created by Inkscape
  0
SECTION
  2
HEADER
  9
$ACADVER
  1
AC1014
  9
$HANDSEED
  5
FFFF
  9
$MEASUREMENT
 70
     1
  0
ENDSEC
  0
SECTION
  2
TABLES
  0
TABLE
  2
VPORT
  5
8
330
0
100
AcDbSymbolTable
 70
     4
  0
VPORT
  5
2E
330
8
100
AcDbSymbolTableRecord
100
AcDbViewportTableRecord
  2
*ACTIVE
 70
     0
 10
0.0
 20
0.0
 11
1.0
 21
1.0
 12
210.0
 22
148.5
 13
0.0
 23
0.0
 14
10.0
 24
10.0
 15
10.0
 25
10.0
 16
0.0
 26
0.0
 36
1.0
 17
0.0
 27
0.0
 37
0.0
 40
341.0
 41
1.24
 42
50.0
 43
0.0
 44
0.0
 50
0.0
 51
0.0
 71
     0
 72
   100
 73
     1
 74
     3
 75
     0
 76
     0
 77
     0
 78
     0
  0
ENDTAB
  0
TABLE
  2
LTYPE
  5
5
330
0
100
AcDbSymbolTable
 70
     1
  0
LTYPE
  5
14
330
5
100
AcDbSymbolTableRecord
100
AcDbLinetypeTableRecord
  2
BYBLOCK
 70
     0
  3

 72
    65
 73
     0
 40
0.0
  0
LTYPE
  5
15
330
5
100
AcDbSymbolTableRecord
100
AcDbLinetypeTableRecord
  2
BYLAYER
 70
     0
  3

 72
    65
 73
     0
 40
0.0
  0
LTYPE
  5
16
330
5
100
AcDbSymbolTableRecord
100
AcDbLinetypeTableRecord
  2
CONTINUOUS
 70
     0
  3
Solid line
 72
    65
 73
     0
 40
0.0
  0
ENDTAB
  0
TABLE
  2
LAYER
  5
2
330
0
100
AcDbSymbolTable
 70
1
  0
LAYER
  5
10
330
2
100
AcDbSymbolTableRecord
100
AcDbLayerTableRecord
  2
0
 70
     0
 62
     7
  6
CONTINUOUS
  0
ENDTAB
  0
TABLE
  2
STYLE
  5
3
330
0
100
AcDbSymbolTable
 70
     1
  0
STYLE
  5
11
330
3
100
AcDbSymbolTableRecord
100
AcDbTextStyleTableRecord
  2
STANDARD
 70
     0
 40
0.0
 41
1.0
 50
0.0
 71
     0
 42
2.5
  3
txt
  4

  0
ENDTAB
  0
TABLE
  2
VIEW
  5
6
330
0
100
AcDbSymbolTable
 70
     0
  0
ENDTAB
  0
TABLE
  2
UCS
  5
7
330
0
100
AcDbSymbolTable
 70
     0
  0
ENDTAB
  0
TABLE
  2
APPID
  5
9
330
0
100
AcDbSymbolTable
 70
     2
  0
APPID
  5
12
330
9
100
AcDbSymbolTableRecord
100
AcDbRegAppTableRecord
  2
ACAD
 70
     0
  0
ENDTAB
  0
TABLE
  2
DIMSTYLE
  5
A
330
0
100
AcDbSymbolTable
 70
     1
  0
DIMSTYLE
105
27
330
A
100
AcDbSymbolTableRecord
100
AcDbDimStyleTableRecord
  2
ISO-25
 70
     0
  3

  4

  5

  6

  7

 40
1.0
 41
2.5
 42
0.625
 43
3.75
 44
1.25
 45
0.0
 46
0.0
 47
0.0
 48
0.0
140
2.5
141
2.5
142
0.0
143
0.03937007874016
144
1.0
145
0.0
146
1.0
147
0.625
 71
     0
 72
     0
 73
     0
 74
     0
 75
     0
 76
     0
 77
     1
 78
     8
170
     0
171
     3
172
     1
173
     0
174
     0
175
     0
176
     0
177
     0
178
     0
270
     2
271
     2
272
     2
273
     2
274
     3
340
11
275
     0
280
     0
281
     0
282
     0
283
     0
284
     8
285
     0
286
     0
287
     3
288
     0
  0
ENDTAB
  0
TABLE
  2
BLOCK_RECORD
  5
1
330
0
100
AcDbSymbolTable
 70
     1
  0
BLOCK_RECORD
  5
1F
330
1
100
AcDbSymbolTableRecord
100
AcDbBlockTableRecord
  2
*MODEL_SPACE
  0
BLOCK_RECORD
  5
1B
330
1
100
AcDbSymbolTableRecord
100
AcDbBlockTableRecord
  2
*PAPER_SPACE
  0
ENDTAB
  0
ENDSEC
  0
SECTION
  2
BLOCKS
  0
BLOCK
  5
20
330
1F
100
AcDbEntity
  8
0
100
AcDbBlockBegin
  2
*MODEL_SPACE
 70
     0
 10
0.0
 20
0.0
 30
0.0
  3
*MODEL_SPACE
  1

  0
ENDBLK
  5
21
330
1F
100
AcDbEntity
  8
0
100
AcDbBlockEnd
  0
BLOCK
  5
1C
330
1B
100
AcDbEntity
 67
     1
  8
0
100
AcDbBlockBegin
  2
*PAPER_SPACE
  1

  0
ENDBLK
  5
1D
330
1B
100
AcDbEntity
 67
     1
  8
0
100
AcDbBlockEnd
  0
ENDSEC
  0
SECTION
  2
ENTITIES
  0
SPLINE
  5
100
100
AcDbEntity
  8
0
 62
7
100
AcDbSpline
 70
8
 71
3
 72
8
 73
4
 74
0
 40
0
 40
0
 40
0
 40
0
 40
1
 40
1
 40
1
 40
1
 10
311.291111
 20
202.697292
 30
0.0
 10
312.978969
 20
202.623273
 30
0.0
 10
314.325000
 20
201.237201
 30
0.0
 10
314.325000
 20
199.531111
 30
0.0
  0
SPLINE
  5
101
100
AcDbEntity
  8
0
 62
7
100
AcDbSpline
 70
8
 71
3
 72
8
 73
4
 74
0
 40
0
 40
0
 40
0
 40
0
 40
1
 40
1
 40
1
 40
1
 10
314.325000
 20
199.531111
 30
0.0
 10
314.325000
 20
197.825021
 30
0.0
 10
312.978969
 20
196.438949
 30
0.0
 10
311.291111
 20
196.364931
 30
0.0
  0
LWPOLYLINE
  5
102
100
AcDbEntity
  8
0
 62
7
100
AcDbPolyline
 90
5
 70
0
 10
304.800000
 20
215.406111
 30
0.0
 10
304.800000
 20
202.706111
 30
0.0
 10
311.150000
 20
202.706111
 30
0.0
 10
311.291111
 20
202.706111
 30
0.0
 10
311.291111
 20
202.697292
 30
0.0
  0
SPLINE
  5
103
100
AcDbEntity
  8
0
 62
7
100
AcDbSpline
 70
8
 71
3
 72
8
 73
4
 74
0
 40
0
 40
0
 40
0
 40
0
 40
1
 40
1
 40
1
 40
1
 10
387.208889
 20
196.364931
 30
0.0
 10
385.521031
 20
196.438949
 30
0.0
 10
384.175000
 20
197.825021
 30
0.0
 10
384.175000
 20
199.531111
 30
0.0
  0
SPLINE
  5
104
100
AcDbEntity
  8
0
 62
7
100
AcDbSpline
 70
8
 71
3
 72
8
 73
4
 74
0
 40
0
 40
0
 40
0
 40
0
 40
1
 40
1
 40
1
 40
1
 10
384.175000
 20
199.531111
 30
0.0
 10
384.175000
 20
201.237201
 30
0.0
 10
385.521031
 20
202.623273
 30
0.0
 10
387.208889
 20
202.697292
 30
0.0
  0
LWPOLYLINE
  5
105
100
AcDbEntity
  8
0
 62
7
100
AcDbPolyline
 90
10
 70
0
 10
311.291111
 20
196.364931
 30
0.0
 10
311.291111
 20
196.356111
 30
0.0
 10
311.150000
 20
196.356111
 30
0.0
 10
304.800000
 20
196.356111
 30
0.0
 10
304.800000
 20
190.006111
 30
0.0
 10
393.700000
 20
190.006111
 30
0.0
 10
393.700000
 20
196.356111
 30
0.0
 10
387.350000
 20
196.356111
 30
0.0
 10
387.208889
 20
196.356111
 30
0.0
 10
387.208889
 20
196.364931
 30
0.0
  0
LWPOLYLINE
  5
106
100
AcDbEntity
  8
0
 62
7
100
AcDbPolyline
 90
7
 70
0
 10
387.208889
 20
202.697292
 30
0.0
 10
387.208889
 20
202.706111
 30
0.0
 10
387.350000
 20
202.706111
 30
0.0
 10
393.700000
 20
202.706111
 30
0.0
 10
393.700000
 20
215.406111
 30
0.0
 10
304.800000
 20
215.406111
 30
0.0
 10
304.800000
 20
215.406111
 30
0.0
  0
SPLINE
  5
107
100
AcDbEntity
  8
0
 62
7
100
AcDbSpline
 70
8
 71
3
 72
8
 73
4
 74
0
 40
0
 40
0
 40
0
 40
0
 40
1
 40
1
 40
1
 40
1
 10
322.183139
 20
212.231111
 30
0.0
 10
322.183139
 20
212.175231
 30
0.0
 10
322.869052
 20
212.125278
 30
0.0
 10
323.717694
 20
212.125278
 30
0.0
  0
SPLINE
  5
108
100
AcDbEntity
  8
0
 62
7
100
AcDbSpline
 70
8
 71
3
 72
8
 73
4
 74
0
 40
0
 40
0
 40
0
 40
0
 40
1
 40
1
 40
1
 40
1
 10
323.717694
 20
212.125278
 30
0.0
 10
324.566393
 20
212.125278
 30
0.0
 10
325.252306
 20
212.175231
 30
0.0
 10
325.252306
 20
212.231111
 30
0.0
  0
LWPOLYLINE
  5
109
100
AcDbEntity
  8
0
 62
7
100
AcDbPolyline
 90
2
 70
0
 10
317.500000
 20
212.231111
 30
0.0
 10
322.183139
 20
212.231111
 30
0.0
  0
SPLINE
  5
10a
100
AcDbEntity
  8
0
 62
7
100
AcDbSpline
 70
8
 71
3
 72
8
 73
4
 74
0
 40
0
 40
0
 40
0
 40
0
 40
1
 40
1
 40
1
 40
1
 10
328.418472
 20
212.231111
 30
0.0
 10
328.418472
 20
212.175231
 30
0.0
 10
329.104413
 20
212.125278
 30
0.0
 10
329.953056
 20
212.125278
 30
0.0
  0
SPLINE
  5
10b
100
AcDbEntity
  8
0
 62
7
100
AcDbSpline
 70
8
 71
3
 72
8
 73
4
 74
0
 40
0
 40
0
 40
0
 40
0
 40
1
 40
1
 40
1
 40
1
 10
329.953056
 20
212.125278
 30
0.0
 10
330.801698
 20
212.125278
 30
0.0
 10
331.487639
 20
212.175231
 30
0.0
 10
331.487639
 20
212.231111
 30
0.0
  0
LWPOLYLINE
  5
10c
100
AcDbEntity
  8
0
 62
7
100
AcDbPolyline
 90
2
 70
0
 10
325.252306
 20
212.231111
 30
0.0
 10
328.418472
 20
212.231111
 30
0.0
  0
SPLINE
  5
10d
100
AcDbEntity
  8
0
 62
7
100
AcDbSpline
 70
8
 71
3
 72
8
 73
4
 74
0
 40
0
 40
0
 40
0
 40
0
 40
1
 40
1
 40
1
 40
1
 10
334.609722
 20
210.643611
 30
0.0
 10
334.609722
 20
210.699491
 30
0.0
 10
333.923781
 20
210.740625
 30
0.0
 10
333.075139
 20
210.740625
 30
0.0
  0
SPLINE
  5
10e
100
AcDbEntity
  8
0
 62
7
100
AcDbSpline
 70
8
 71
3
 72
8
 73
4
 74
0
 40
0
 40
0
 40
0
 40
0
 40
1
 40
1
 40
1
 40
1
 10
333.075139
 20
210.740625
 30
0.0
 10
332.226497
 20
210.740625
 30
0.0
 10
331.531750
 20
210.699491
 30
0.0
 10
331.531750
 20
210.643611
 30
0.0
  0
LWPOLYLINE
  5
10f
100
AcDbEntity
  8
0
 62
7
100
AcDbPolyline
 90
4
 70
0
 10
331.487639
 20
212.231111
 30
0.0
 10
336.550000
 20
212.231111
 30
0.0
 10
336.550000
 20
210.643611
 30
0.0
 10
334.609722
 20
210.643611
 30
0.0
  0
SPLINE
  5
110
100
AcDbEntity
  8
0
 62
7
100
AcDbSpline
 70
8
 71
3
 72
8
 73
4
 74
0
 40
0
 40
0
 40
0
 40
0
 40
1
 40
1
 40
1
 40
1
 10
328.374361
 20
210.643611
 30
0.0
 10
328.374417
 20
210.699491
 30
0.0
 10
327.688448
 20
210.740625
 30
0.0
 10
326.839806
 20
210.740625
 30
0.0
  0
SPLINE
  5
111
100
AcDbEntity
  8
0
 62
7
100
AcDbSpline
 70
8
 71
3
 72
8
 73
4
 74
0
 40
0
 40
0
 40
0
 40
0
 40
1
 40
1
 40
1
 40
1
 10
326.839806
 20
210.740625
 30
0.0
 10
325.991107
 20
210.740625
 30
0.0
 10
325.296389
 20
210.699491
 30
0.0
 10
325.296389
 20
210.643611
 30
0.0
  0
LWPOLYLINE
  5
112
100
AcDbEntity
  8
0
 62
7
100
AcDbPolyline
 90
2
 70
0
 10
331.531750
 20
210.643611
 30
0.0
 10
328.374361
 20
210.643611
 30
0.0
  0
SPLINE
  5
113
100
AcDbEntity
  8
0
 62
7
100
AcDbSpline
 70
8
 71
3
 72
8
 73
4
 74
0
 40
0
 40
0
 40
0
 40
0
 40
1
 40
1
 40
1
 40
1
 10
322.156667
 20
210.643611
 30
0.0
 10
322.156667
 20
210.699491
 30
0.0
 10
321.470726
 20
210.740625
 30
0.0
 10
320.622083
 20
210.740625
 30
0.0
  0
SPLINE
  5
114
100
AcDbEntity
  8
0
 62
7
100
AcDbSpline
 70
8
 71
3
 72
8
 73
4
 74
0
 40
0
 40
0
 40
0
 40
0
 40
1
 40
1
 40
1
 40
1
 10
320.622083
 20
210.740625
 30
0.0
 10
319.773441
 20
210.740625
 30
0.0
 10
319.087500
 20
210.699491
 30
0.0
 10
319.087500
 20
210.643611
 30
0.0
  0
LWPOLYLINE
  5
115
100
AcDbEntity
  8
0
 62
7
100
AcDbPolyline
 90
2
 70
0
 10
325.296389
 20
210.643611
 30
0.0
 10
322.156667
 20
210.643611
 30
0.0
  0
LWPOLYLINE
  5
116
100
AcDbEntity
  8
0
 62
7
100
AcDbPolyline
 90
4
 70
0
 10
319.087500
 20
210.643611
 30
0.0
 10
317.500000
 20
210.643611
 30
0.0
 10
317.500000
 20
212.231111
 30
0.0
 10
317.500000
 20
212.231111
 30
0.0
  0
SPLINE
  5
117
100
AcDbEntity
  8
0
 62
7
100
AcDbSpline
 70
8
 71
3
 72
8
 73
4
 74
0
 40
0
 40
0
 40
0
 40
0
 40
1
 40
1
 40
1
 40
1
 10
366.932972
 20
212.231111
 30
0.0
 10
366.932972
 20
212.175231
 30
0.0
 10
367.618913
 20
212.125278
 30
0.0
 10
368.467584
 20
212.125278
 30
0.0
  0
SPLINE
  5
118
100
AcDbEntity
  8
0
 62
7
100
AcDbSpline
 70
8
 71
3
 72
8
 73
4
 74
0
 40
0
 40
0
 40
0
 40
0
 40
1
 40
1
 40
1
 40
1
 10
368.467584
 20
212.125278
 30
0.0
 10
369.316226
 20
212.125278
 30
0.0
 10
370.002139
 20
212.175231
 30
0.0
 10
370.002139
 20
212.231111
 30
0.0
  0
LWPOLYLINE
  5
119
100
AcDbEntity
  8
0
 62
7
100
AcDbPolyline
 90
2
 70
0
 10
361.950000
 20
212.231111
 30
0.0
 10
366.932972
 20
212.231111
 30
0.0
  0
SPLINE
  5
11a
100
AcDbEntity
  8
0
 62
7
100
AcDbSpline
 70
8
 71
3
 72
8
 73
4
 74
0
 40
0
 40
0
 40
0
 40
0
 40
1
 40
1
 40
1
 40
1
 10
373.168333
 20
212.231111
 30
0.0
 10
373.168333
 20
212.175231
 30
0.0
 10
373.854274
 20
212.125278
 30
0.0
 10
374.702917
 20
212.125278
 30
0.0
  0
SPLINE
  5
11b
100
AcDbEntity
  8
0
 62
7
100
AcDbSpline
 70
8
 71
3
 72
8
 73
4
 74
0
 40
0
 40
0
 40
0
 40
0
 40
1
 40
1
 40
1
 40
1
 10
374.702917
 20
212.125278
 30
0.0
 10
375.551559
 20
212.125278
 30
0.0
 10
376.246305
 20
212.175231
 30
0.0
 10
376.246305
 20
212.231111
 30
0.0
  0
LWPOLYLINE
  5
11c
100
AcDbEntity
  8
0
 62
7
100
AcDbPolyline
 90
2
 70
0
 10
370.002139
 20
212.231111
 30
0.0
 10
373.168333
 20
212.231111
 30
0.0
  0
SPLINE
  5
11d
100
AcDbEntity
  8
0
 62
7
100
AcDbSpline
 70
8
 71
3
 72
8
 73
4
 74
0
 40
0
 40
0
 40
0
 40
0
 40
1
 40
1
 40
1
 40
1
 10
379.359583
 20
210.643611
 30
0.0
 10
379.359583
 20
210.699491
 30
0.0
 10
378.673642
 20
210.740625
 30
0.0
 10
377.825000
 20
210.740625
 30
0.0
  0
SPLINE
  5
11e
100
AcDbEntity
  8
0
 62
7
100
AcDbSpline
 70
8
 71
3
 72
8
 73
4
 74
0
 40
0
 40
0
 40
0
 40
0
 40
1
 40
1
 40
1
 40
1
 10
377.825000
 20
210.740625
 30
0.0
 10
376.976358
 20
210.740625
 30
0.0
 10
376.290417
 20
210.699491
 30
0.0
 10
376.290417
 20
210.643611
 30
0.0
  0
LWPOLYLINE
  5
11f
100
AcDbEntity
  8
0
 62
7
100
AcDbPolyline
 90
4
 70
0
 10
376.246305
 20
212.231111
 30
0.0
 10
381.000000
 20
212.231111
 30
0.0
 10
381.000000
 20
210.643611
 30
0.0
 10
379.359583
 20
210.643611
 30
0.0
  0
SPLINE
  5
120
100
AcDbEntity
  8
0
 62
7
100
AcDbSpline
 70
8
 71
3
 72
8
 73
4
 74
0
 40
0
 40
0
 40
0
 40
0
 40
1
 40
1
 40
1
 40
1
 10
373.124250
 20
210.643611
 30
0.0
 10
373.124250
 20
210.699491
 30
0.0
 10
372.438309
 20
210.740625
 30
0.0
 10
371.589639
 20
210.740625
 30
0.0
  0
SPLINE
  5
121
100
AcDbEntity
  8
0
 62
7
100
AcDbSpline
 70
8
 71
3
 72
8
 73
4
 74
0
 40
0
 40
0
 40
0
 40
0
 40
1
 40
1
 40
1
 40
1
 10
371.589639
 20
210.740625
 30
0.0
 10
370.740996
 20
210.740625
 30
0.0
 10
370.055084
 20
210.699491
 30
0.0
 10
370.055084
 20
210.643611
 30
0.0
  0
LWPOLYLINE
  5
122
100
AcDbEntity
  8
0
 62
7
100
AcDbPolyline
 90
2
 70
0
 10
376.290417
 20
210.643611
 30
0.0
 10
373.124250
 20
210.643611
 30
0.0
  0
SPLINE
  5
123
100
AcDbEntity
  8
0
 62
7
100
AcDbSpline
 70
8
 71
3
 72
8
 73
4
 74
0
 40
0
 40
0
 40
0
 40
0
 40
1
 40
1
 40
1
 40
1
 10
366.906528
 20
210.643611
 30
0.0
 10
366.906528
 20
210.699491
 30
0.0
 10
366.220587
 20
210.740625
 30
0.0
 10
365.371944
 20
210.740625
 30
0.0
  0
SPLINE
  5
124
100
AcDbEntity
  8
0
 62
7
100
AcDbSpline
 70
8
 71
3
 72
8
 73
4
 74
0
 40
0
 40
0
 40
0
 40
0
 40
1
 40
1
 40
1
 40
1
 10
365.371944
 20
210.740625
 30
0.0
 10
364.523302
 20
210.740625
 30
0.0
 10
363.837361
 20
210.699491
 30
0.0
 10
363.837361
 20
210.643611
 30
0.0
  0
LWPOLYLINE
  5
125
100
AcDbEntity
  8
0
 62
7
100
AcDbPolyline
 90
2
 70
0
 10
370.055084
 20
210.643611
 30
0.0
 10
366.906528
 20
210.643611
 30
0.0
  0
LWPOLYLINE
  5
126
100
AcDbEntity
  8
0
 62
7
100
AcDbPolyline
 90
4
 70
0
 10
363.837361
 20
210.643611
 30
0.0
 10
361.950000
 20
210.643611
 30
0.0
 10
361.950000
 20
212.231111
 30
0.0
 10
361.950000
 20
212.231111
 30
0.0
  0
LWPOLYLINE
  5
127
100
AcDbEntity
  8
0
 62
7
100
AcDbPolyline
 90
22
 70
0
 10
6.350000
 20
236.400904
 30
0.0
 10
7.937500
 20
236.400904
 30
0.0
 10
7.937500
 20
230.050904
 30
0.0
 10
442.912500
 20
230.050904
 30
0.0
 10
442.912500
 20
236.400904
 30
0.0
 10
444.500000
 20
236.400904
 30
0.0
 10
444.500000
 20
255.450904
 30
0.0
 10
442.912500
 20
255.450904
 30
0.0
 10
442.912500
 20
280.850903
 30
0.0
 10
444.500000
 20
280.850903
 30
0.0
 10
444.500000
 20
299.900903
 30
0.0
 10
442.912500
 20
299.900903
 30
0.0
 10
442.912500
 20
306.250903
 30
0.0
 10
7.937500
 20
306.250903
 30
0.0
 10
7.937500
 20
299.900903
 30
0.0
 10
6.350000
 20
299.900903
 30
0.0
 10
6.350000
 20
280.850903
 30
0.0
 10
7.937500
 20
280.850903
 30
0.0
 10
7.937500
 20
255.450904
 30
0.0
 10
6.350000
 20
255.450904
 30
0.0
 10
6.350000
 20
236.400904
 30
0.0
 10
6.350000
 20
236.400904
 30
0.0
  0
SPLINE
  5
128
100
AcDbEntity
  8
0
 62
7
100
AcDbSpline
 70
8
 71
3
 72
8
 73
4
 74
0
 40
0
 40
0
 40
0
 40
0
 40
1
 40
1
 40
1
 40
1
 10
9.031111
 20
212.222292
 30
0.0
 10
10.718969
 20
212.148273
 30
0.0
 10
12.065000
 20
210.762201
 30
0.0
 10
12.065000
 20
209.056111
 30
0.0
  0
SPLINE
  5
129
100
AcDbEntity
  8
0
 62
7
100
AcDbSpline
 70
8
 71
3
 72
8
 73
4
 74
0
 40
0
 40
0
 40
0
 40
0
 40
1
 40
1
 40
1
 40
1
 10
12.065000
 20
209.056111
 30
0.0
 10
12.065000
 20
207.350021
 30
0.0
 10
10.718969
 20
205.963949
 30
0.0
 10
9.031111
 20
205.889931
 30
0.0
  0
LWPOLYLINE
  5
12a
100
AcDbEntity
  8
0
 62
7
100
AcDbPolyline
 90
5
 70
0
 10
2.540000
 20
218.581111
 30
0.0
 10
2.540000
 20
212.231111
 30
0.0
 10
8.890000
 20
212.231111
 30
0.0
 10
9.031111
 20
212.231111
 30
0.0
 10
9.031111
 20
212.222292
 30
0.0
  0
SPLINE
  5
12b
100
AcDbEntity
  8
0
 62
7
100
AcDbSpline
 70
8
 71
3
 72
8
 73
4
 74
0
 40
0
 40
0
 40
0
 40
0
 40
1
 40
1
 40
1
 40
1
 10
84.948889
 20
205.889931
 30
0.0
 10
83.261036
 20
205.963949
 30
0.0
 10
81.915000
 20
207.350021
 30
0.0
 10
81.915000
 20
209.056111
 30
0.0
  0
SPLINE
  5
12c
100
AcDbEntity
  8
0
 62
7
100
AcDbSpline
 70
8
 71
3
 72
8
 73
4
 74
0
 40
0
 40
0
 40
0
 40
0
 40
1
 40
1
 40
1
 40
1
 10
81.915000
 20
209.056111
 30
0.0
 10
81.915000
 20
210.762201
 30
0.0
 10
83.261036
 20
212.148273
 30
0.0
 10
84.948889
 20
212.222292
 30
0.0
  0
LWPOLYLINE
  5
12d
100
AcDbEntity
  8
0
 62
7
100
AcDbPolyline
 90
10
 70
0
 10
9.031111
 20
205.889931
 30
0.0
 10
9.031111
 20
205.881111
 30
0.0
 10
8.890000
 20
205.881111
 30
0.0
 10
2.540000
 20
205.881111
 30
0.0
 10
2.540000
 20
193.181111
 30
0.0
 10
91.440000
 20
193.181111
 30
0.0
 10
91.440000
 20
205.881111
 30
0.0
 10
85.090000
 20
205.881111
 30
0.0
 10
84.948889
 20
205.881111
 30
0.0
 10
84.948889
 20
205.889931
 30
0.0
  0
LWPOLYLINE
  5
12e
100
AcDbEntity
  8
0
 62
7
100
AcDbPolyline
 90
7
 70
0
 10
84.948889
 20
212.222292
 30
0.0
 10
84.948889
 20
212.231111
 30
0.0
 10
85.090000
 20
212.231111
 30
0.0
 10
91.440000
 20
212.231111
 30
0.0
 10
91.440000
 20
218.581111
 30
0.0
 10
2.540000
 20
218.581111
 30
0.0
 10
2.540000
 20
218.581111
 30
0.0
  0
SPLINE
  5
12f
100
AcDbEntity
  8
0
 62
7
100
AcDbSpline
 70
8
 71
3
 72
8
 73
4
 74
0
 40
0
 40
0
 40
0
 40
0
 40
1
 40
1
 40
1
 40
1
 10
19.843750
 20
197.943611
 30
0.0
 10
19.843750
 20
197.887731
 30
0.0
 10
20.538508
 20
197.837778
 30
0.0
 10
21.387153
 20
197.837778
 30
0.0
  0
SPLINE
  5
130
100
AcDbEntity
  8
0
 62
7
100
AcDbSpline
 70
8
 71
3
 72
8
 73
4
 74
0
 40
0
 40
0
 40
0
 40
0
 40
1
 40
1
 40
1
 40
1
 10
21.387153
 20
197.837778
 30
0.0
 10
22.235798
 20
197.837778
 30
0.0
 10
22.921736
 20
197.887731
 30
0.0
 10
22.921736
 20
197.943611
 30
0.0
  0
LWPOLYLINE
  5
131
100
AcDbEntity
  8
0
 62
7
100
AcDbPolyline
 90
2
 70
0
 10
15.240000
 20
197.943611
 30
0.0
 10
19.843750
 20
197.943611
 30
0.0
  0
SPLINE
  5
132
100
AcDbEntity
  8
0
 62
7
100
AcDbSpline
 70
8
 71
3
 72
8
 73
4
 74
0
 40
0
 40
0
 40
0
 40
0
 40
1
 40
1
 40
1
 40
1
 10
26.079097
 20
197.943611
 30
0.0
 10
26.079097
 20
197.887731
 30
0.0
 10
26.773855
 20
197.837778
 30
0.0
 10
27.622500
 20
197.837778
 30
0.0
  0
SPLINE
  5
133
100
AcDbEntity
  8
0
 62
7
100
AcDbSpline
 70
8
 71
3
 72
8
 73
4
 74
0
 40
0
 40
0
 40
0
 40
0
 40
1
 40
1
 40
1
 40
1
 10
27.622500
 20
197.837778
 30
0.0
 10
28.471145
 20
197.837778
 30
0.0
 10
29.157083
 20
197.887731
 30
0.0
 10
29.157083
 20
197.943611
 30
0.0
  0
LWPOLYLINE
  5
134
100
AcDbEntity
  8
0
 62
7
100
AcDbPolyline
 90
2
 70
0
 10
22.921736
 20
197.943611
 30
0.0
 10
26.079097
 20
197.943611
 30
0.0
  0
SPLINE
  5
135
100
AcDbEntity
  8
0
 62
7
100
AcDbSpline
 70
8
 71
3
 72
8
 73
4
 74
0
 40
0
 40
0
 40
0
 40
0
 40
1
 40
1
 40
1
 40
1
 10
32.270347
 20
196.356111
 30
0.0
 10
32.270347
 20
196.411991
 30
0.0
 10
31.584409
 20
196.453125
 30
0.0
 10
30.735764
 20
196.453125
 30
0.0
  0
SPLINE
  5
136
100
AcDbEntity
  8
0
 62
7
100
AcDbSpline
 70
8
 71
3
 72
8
 73
4
 74
0
 40
0
 40
0
 40
0
 40
0
 40
1
 40
1
 40
1
 40
1
 10
30.735764
 20
196.453125
 30
0.0
 10
29.887119
 20
196.453125
 30
0.0
 10
29.201181
 20
196.411991
 30
0.0
 10
29.201181
 20
196.356111
 30
0.0
  0
LWPOLYLINE
  5
137
100
AcDbEntity
  8
0
 62
7
100
AcDbPolyline
 90
4
 70
0
 10
29.157083
 20
197.943611
 30
0.0
 10
34.290000
 20
197.943611
 30
0.0
 10
34.290000
 20
196.356111
 30
0.0
 10
32.270347
 20
196.356111
 30
0.0
  0
SPLINE
  5
138
100
AcDbEntity
  8
0
 62
7
100
AcDbSpline
 70
8
 71
3
 72
8
 73
4
 74
0
 40
0
 40
0
 40
0
 40
0
 40
1
 40
1
 40
1
 40
1
 10
26.035000
 20
196.356111
 30
0.0
 10
26.035000
 20
196.411991
 30
0.0
 10
25.349062
 20
196.453125
 30
0.0
 10
24.500417
 20
196.453125
 30
0.0
  0
SPLINE
  5
139
100
AcDbEntity
  8
0
 62
7
100
AcDbSpline
 70
8
 71
3
 72
8
 73
4
 74
0
 40
0
 40
0
 40
0
 40
0
 40
1
 40
1
 40
1
 40
1
 10
24.500417
 20
196.453125
 30
0.0
 10
23.651772
 20
196.453125
 30
0.0
 10
22.965833
 20
196.411991
 30
0.0
 10
22.965833
 20
196.356111
 30
0.0
  0
LWPOLYLINE
  5
13a
100
AcDbEntity
  8
0
 62
7
100
AcDbPolyline
 90
2
 70
0
 10
29.201181
 20
196.356111
 30
0.0
 10
26.035000
 20
196.356111
 30
0.0
  0
SPLINE
  5
13b
100
AcDbEntity
  8
0
 62
7
100
AcDbSpline
 70
8
 71
3
 72
8
 73
4
 74
0
 40
0
 40
0
 40
0
 40
0
 40
1
 40
1
 40
1
 40
1
 10
19.826111
 20
196.356111
 30
0.0
 10
19.826111
 20
196.411991
 30
0.0
 10
19.140173
 20
196.453125
 30
0.0
 10
18.291528
 20
196.453125
 30
0.0
  0
SPLINE
  5
13c
100
AcDbEntity
  8
0
 62
7
100
AcDbSpline
 70
8
 71
3
 72
8
 73
4
 74
0
 40
0
 40
0
 40
0
 40
0
 40
1
 40
1
 40
1
 40
1
 10
18.291528
 20
196.453125
 30
0.0
 10
17.442883
 20
196.453125
 30
0.0
 10
16.748125
 20
196.411991
 30
0.0
 10
16.748125
 20
196.356111
 30
0.0
  0
LWPOLYLINE
  5
13d
100
AcDbEntity
  8
0
 62
7
100
AcDbPolyline
 90
2
 70
0
 10
22.965833
 20
196.356111
 30
0.0
 10
19.826111
 20
196.356111
 30
0.0
  0
LWPOLYLINE
  5
13e
100
AcDbEntity
  8
0
 62
7
100
AcDbPolyline
 90
4
 70
0
 10
16.748125
 20
196.356111
 30
0.0
 10
15.240000
 20
196.356111
 30
0.0
 10
15.240000
 20
197.943611
 30
0.0
 10
15.240000
 20
197.943611
 30
0.0
  0
SPLINE
  5
13f
100
AcDbEntity
  8
0
 62
7
100
AcDbSpline
 70
8
 71
3
 72
8
 73
4
 74
0
 40
0
 40
0
 40
0
 40
0
 40
1
 40
1
 40
1
 40
1
 10
65.096319
 20
197.943611
 30
0.0
 10
65.096319
 20
197.887731
 30
0.0
 10
65.782258
 20
197.837778
 30
0.0
 10
66.630903
 20
197.837778
 30
0.0
  0
SPLINE
  5
140
100
AcDbEntity
  8
0
 62
7
100
AcDbSpline
 70
8
 71
3
 72
8
 73
4
 74
0
 40
0
 40
0
 40
0
 40
0
 40
1
 40
1
 40
1
 40
1
 10
66.630903
 20
197.837778
 30
0.0
 10
67.479548
 20
197.837778
 30
0.0
 10
68.174306
 20
197.887731
 30
0.0
 10
68.174306
 20
197.943611
 30
0.0
  0
LWPOLYLINE
  5
141
100
AcDbEntity
  8
0
 62
7
100
AcDbPolyline
 90
2
 70
0
 10
59.690000
 20
197.943611
 30
0.0
 10
65.096319
 20
197.943611
 30
0.0
  0
SPLINE
  5
142
100
AcDbEntity
  8
0
 62
7
100
AcDbSpline
 70
8
 71
3
 72
8
 73
4
 74
0
 40
0
 40
0
 40
0
 40
0
 40
1
 40
1
 40
1
 40
1
 10
71.331667
 20
197.943611
 30
0.0
 10
71.331667
 20
197.887731
 30
0.0
 10
72.017605
 20
197.837778
 30
0.0
 10
72.866250
 20
197.837778
 30
0.0
  0
SPLINE
  5
143
100
AcDbEntity
  8
0
 62
7
100
AcDbSpline
 70
8
 71
3
 72
8
 73
4
 74
0
 40
0
 40
0
 40
0
 40
0
 40
1
 40
1
 40
1
 40
1
 10
72.866250
 20
197.837778
 30
0.0
 10
73.714895
 20
197.837778
 30
0.0
 10
74.409653
 20
197.887731
 30
0.0
 10
74.409653
 20
197.943611
 30
0.0
  0
LWPOLYLINE
  5
144
100
AcDbEntity
  8
0
 62
7
100
AcDbPolyline
 90
2
 70
0
 10
68.174306
 20
197.943611
 30
0.0
 10
71.331667
 20
197.943611
 30
0.0
  0
SPLINE
  5
145
100
AcDbEntity
  8
0
 62
7
100
AcDbSpline
 70
8
 71
3
 72
8
 73
4
 74
0
 40
0
 40
0
 40
0
 40
0
 40
1
 40
1
 40
1
 40
1
 10
77.522917
 20
196.356111
 30
0.0
 10
77.522917
 20
196.411991
 30
0.0
 10
76.836978
 20
196.453125
 30
0.0
 10
75.988333
 20
196.453125
 30
0.0
  0
SPLINE
  5
146
100
AcDbEntity
  8
0
 62
7
100
AcDbSpline
 70
8
 71
3
 72
8
 73
4
 74
0
 40
0
 40
0
 40
0
 40
0
 40
1
 40
1
 40
1
 40
1
 10
75.988333
 20
196.453125
 30
0.0
 10
75.139688
 20
196.453125
 30
0.0
 10
74.453750
 20
196.411991
 30
0.0
 10
74.453750
 20
196.356111
 30
0.0
  0
LWPOLYLINE
  5
147
100
AcDbEntity
  8
0
 62
7
100
AcDbPolyline
 90
4
 70
0
 10
74.409653
 20
197.943611
 30
0.0
 10
78.740000
 20
197.943611
 30
0.0
 10
78.740000
 20
196.356111
 30
0.0
 10
77.522917
 20
196.356111
 30
0.0
  0
SPLINE
  5
148
100
AcDbEntity
  8
0
 62
7
100
AcDbSpline
 70
8
 71
3
 72
8
 73
4
 74
0
 40
0
 40
0
 40
0
 40
0
 40
1
 40
1
 40
1
 40
1
 10
71.287569
 20
196.356111
 30
0.0
 10
71.287569
 20
196.411991
 30
0.0
 10
70.601631
 20
196.453125
 30
0.0
 10
69.752986
 20
196.453125
 30
0.0
  0
SPLINE
  5
149
100
AcDbEntity
  8
0
 62
7
100
AcDbSpline
 70
8
 71
3
 72
8
 73
4
 74
0
 40
0
 40
0
 40
0
 40
0
 40
1
 40
1
 40
1
 40
1
 10
69.752986
 20
196.453125
 30
0.0
 10
68.904341
 20
196.453125
 30
0.0
 10
68.218403
 20
196.411991
 30
0.0
 10
68.218403
 20
196.356111
 30
0.0
  0
LWPOLYLINE
  5
14a
100
AcDbEntity
  8
0
 62
7
100
AcDbPolyline
 90
2
 70
0
 10
74.453750
 20
196.356111
 30
0.0
 10
71.287569
 20
196.356111
 30
0.0
  0
SPLINE
  5
14b
100
AcDbEntity
  8
0
 62
7
100
AcDbSpline
 70
8
 71
3
 72
8
 73
4
 74
0
 40
0
 40
0
 40
0
 40
0
 40
1
 40
1
 40
1
 40
1
 10
65.078681
 20
196.356111
 30
0.0
 10
65.078681
 20
196.411991
 30
0.0
 10
64.383923
 20
196.453125
 30
0.0
 10
63.535278
 20
196.453125
 30
0.0
  0
SPLINE
  5
14c
100
AcDbEntity
  8
0
 62
7
100
AcDbSpline
 70
8
 71
3
 72
8
 73
4
 74
0
 40
0
 40
0
 40
0
 40
0
 40
1
 40
1
 40
1
 40
1
 10
63.535278
 20
196.453125
 30
0.0
 10
62.686633
 20
196.453125
 30
0.0
 10
62.000694
 20
196.411991
 30
0.0
 10
62.000694
 20
196.356111
 30
0.0
  0
LWPOLYLINE
  5
14d
100
AcDbEntity
  8
0
 62
7
100
AcDbPolyline
 90
2
 70
0
 10
68.218403
 20
196.356111
 30
0.0
 10
65.078681
 20
196.356111
 30
0.0
  0
LWPOLYLINE
  5
14e
100
AcDbEntity
  8
0
 62
7
100
AcDbPolyline
 90
4
 70
0
 10
62.000694
 20
196.356111
 30
0.0
 10
59.690000
 20
196.356111
 30
0.0
 10
59.690000
 20
197.943611
 30
0.0
 10
59.690000
 20
197.943611
 30
0.0
  0
SPLINE
  5
14f
100
AcDbEntity
  8
0
 62
7
100
AcDbSpline
 70
8
 71
3
 72
8
 73
4
 74
0
 40
0
 40
0
 40
0
 40
0
 40
1
 40
1
 40
1
 40
1
 10
406.400000
 20
207.715556
 30
0.0
 10
409.465131
 20
207.715556
 30
0.0
 10
411.947416
 20
205.233250
 30
0.0
 10
411.947416
 20
202.168125
 30
0.0
  0
SPLINE
  5
150
100
AcDbEntity
  8
0
 62
7
100
AcDbSpline
 70
8
 71
3
 72
8
 73
4
 74
0
 40
0
 40
0
 40
0
 40
0
 40
1
 40
1
 40
1
 40
1
 10
411.947416
 20
202.168125
 30
0.0
 10
411.947416
 20
199.103000
 30
0.0
 10
409.465131
 20
196.611875
 30
0.0
 10
406.400000
 20
196.611875
 30
0.0
  0
SPLINE
  5
151
100
AcDbEntity
  8
0
 62
7
100
AcDbSpline
 70
8
 71
3
 72
8
 73
4
 74
0
 40
0
 40
0
 40
0
 40
0
 40
1
 40
1
 40
1
 40
1
 10
406.400000
 20
196.611875
 30
0.0
 10
403.334869
 20
196.611875
 30
0.0
 10
400.852584
 20
199.103000
 30
0.0
 10
400.852584
 20
202.168125
 30
0.0
  0
SPLINE
  5
152
100
AcDbEntity
  8
0
 62
7
100
AcDbSpline
 70
8
 71
3
 72
8
 73
4
 74
0
 40
0
 40
0
 40
0
 40
0
 40
1
 40
1
 40
1
 40
1
 10
400.852584
 20
202.168125
 30
0.0
 10
400.852584
 20
205.233250
 30
0.0
 10
403.334869
 20
207.715556
 30
0.0
 10
406.400000
 20
207.715556
 30
0.0
  0
LWPOLYLINE
  5
153
100
AcDbEntity
  8
0
 62
7
100
AcDbPolyline
 90
6
 70
0
 10
397.324806
 20
211.340347
 30
0.0
 10
397.324806
 20
188.762569
 30
0.0
 10
456.027028
 20
188.762569
 30
0.0
 10
456.027028
 20
211.340347
 30
0.0
 10
397.324806
 20
211.340347
 30
0.0
 10
397.324806
 20
211.340347
 30
0.0
  0
SPLINE
  5
154
100
AcDbEntity
  8
0
 62
7
100
AcDbSpline
 70
8
 71
3
 72
8
 73
4
 74
0
 40
0
 40
0
 40
0
 40
0
 40
1
 40
1
 40
1
 40
1
 10
419.161750
 20
206.930625
 30
0.0
 10
421.791977
 20
206.930625
 30
0.0
 10
423.924166
 20
204.798382
 30
0.0
 10
423.924250
 20
202.168125
 30
0.0
  0
SPLINE
  5
155
100
AcDbEntity
  8
0
 62
7
100
AcDbSpline
 70
8
 71
3
 72
8
 73
4
 74
0
 40
0
 40
0
 40
0
 40
0
 40
1
 40
1
 40
1
 40
1
 10
423.924250
 20
202.168125
 30
0.0
 10
423.924250
 20
199.537868
 30
0.0
 10
421.791977
 20
197.405625
 30
0.0
 10
419.161750
 20
197.405625
 30
0.0
  0
SPLINE
  5
156
100
AcDbEntity
  8
0
 62
7
100
AcDbSpline
 70
8
 71
3
 72
8
 73
4
 74
0
 40
0
 40
0
 40
0
 40
0
 40
1
 40
1
 40
1
 40
1
 10
419.161750
 20
197.405625
 30
0.0
 10
416.531354
 20
197.405625
 30
0.0
 10
414.399194
 20
199.537868
 30
0.0
 10
414.399250
 20
202.168125
 30
0.0
  0
SPLINE
  5
157
100
AcDbEntity
  8
0
 62
7
100
AcDbSpline
 70
8
 71
3
 72
8
 73
4
 74
0
 40
0
 40
0
 40
0
 40
0
 40
1
 40
1
 40
1
 40
1
 10
414.399250
 20
202.168125
 30
0.0
 10
414.399250
 20
204.798382
 30
0.0
 10
416.531439
 20
206.930625
 30
0.0
 10
419.161750
 20
206.930625
 30
0.0
  0
LWPOLYLINE
  5
158
100
AcDbEntity
  8
0
 62
7
100
AcDbPolyline
 90
2
 70
0
 10
406.400000
 20
207.715556
 30
0.0
 10
406.400000
 20
207.715556
 30
0.0
  0
SPLINE
  5
159
100
AcDbEntity
  8
0
 62
7
100
AcDbSpline
 70
8
 71
3
 72
8
 73
4
 74
0
 40
0
 40
0
 40
0
 40
0
 40
1
 40
1
 40
1
 40
1
 10
428.863139
 20
205.343125
 30
0.0
 10
430.616558
 20
205.343125
 30
0.0
 10
432.038054
 20
203.921628
 30
0.0
 10
432.038139
 20
202.168125
 30
0.0
  0
SPLINE
  5
15a
100
AcDbEntity
  8
0
 62
7
100
AcDbSpline
 70
8
 71
3
 72
8
 73
4
 74
0
 40
0
 40
0
 40
0
 40
0
 40
1
 40
1
 40
1
 40
1
 10
432.038139
 20
202.168125
 30
0.0
 10
432.038139
 20
200.414622
 30
0.0
 10
430.616558
 20
198.993125
 30
0.0
 10
428.863139
 20
198.993125
 30
0.0
  0
SPLINE
  5
15b
100
AcDbEntity
  8
0
 62
7
100
AcDbSpline
 70
8
 71
3
 72
8
 73
4
 74
0
 40
0
 40
0
 40
0
 40
0
 40
1
 40
1
 40
1
 40
1
 10
428.863139
 20
198.993125
 30
0.0
 10
427.109523
 20
198.993125
 30
0.0
 10
425.688111
 20
200.414622
 30
0.0
 10
425.688139
 20
202.168125
 30
0.0
  0
SPLINE
  5
15c
100
AcDbEntity
  8
0
 62
7
100
AcDbSpline
 70
8
 71
3
 72
8
 73
4
 74
0
 40
0
 40
0
 40
0
 40
0
 40
1
 40
1
 40
1
 40
1
 10
425.688139
 20
202.168125
 30
0.0
 10
425.688139
 20
203.921628
 30
0.0
 10
427.109523
 20
205.343125
 30
0.0
 10
428.863139
 20
205.343125
 30
0.0
  0
LWPOLYLINE
  5
15d
100
AcDbEntity
  8
0
 62
7
100
AcDbPolyline
 90
2
 70
0
 10
419.161750
 20
206.930625
 30
0.0
 10
419.161750
 20
206.930625
 30
0.0
  0
SPLINE
  5
15e
100
AcDbEntity
  8
0
 62
7
100
AcDbSpline
 70
8
 71
3
 72
8
 73
4
 74
0
 40
0
 40
0
 40
0
 40
0
 40
1
 40
1
 40
1
 40
1
 10
437.294528
 20
204.743403
 30
0.0
 10
438.718311
 20
204.743403
 30
0.0
 10
439.869749
 20
203.591970
 30
0.0
 10
439.869806
 20
202.168125
 30
0.0
  0
SPLINE
  5
15f
100
AcDbEntity
  8
0
 62
7
100
AcDbSpline
 70
8
 71
3
 72
8
 73
4
 74
0
 40
0
 40
0
 40
0
 40
0
 40
1
 40
1
 40
1
 40
1
 10
439.869806
 20
202.168125
 30
0.0
 10
439.869806
 20
200.744280
 30
0.0
 10
438.718311
 20
199.584028
 30
0.0
 10
437.294528
 20
199.584028
 30
0.0
  0
SPLINE
  5
160
100
AcDbEntity
  8
0
 62
7
100
AcDbSpline
 70
8
 71
3
 72
8
 73
4
 74
0
 40
0
 40
0
 40
0
 40
0
 40
1
 40
1
 40
1
 40
1
 10
437.294528
 20
199.584028
 30
0.0
 10
435.870632
 20
199.584028
 30
0.0
 10
434.719222
 20
200.744280
 30
0.0
 10
434.719250
 20
202.168125
 30
0.0
  0
SPLINE
  5
161
100
AcDbEntity
  8
0
 62
7
100
AcDbSpline
 70
8
 71
3
 72
8
 73
4
 74
0
 40
0
 40
0
 40
0
 40
0
 40
1
 40
1
 40
1
 40
1
 10
434.719250
 20
202.168125
 30
0.0
 10
434.719250
 20
203.591970
 30
0.0
 10
435.870632
 20
204.743403
 30
0.0
 10
437.294528
 20
204.743403
 30
0.0
  0
LWPOLYLINE
  5
162
100
AcDbEntity
  8
0
 62
7
100
AcDbPolyline
 90
2
 70
0
 10
428.863139
 20
205.343125
 30
0.0
 10
428.863139
 20
205.343125
 30
0.0
  0
SPLINE
  5
163
100
AcDbEntity
  8
0
 62
7
100
AcDbSpline
 70
8
 71
3
 72
8
 73
4
 74
0
 40
0
 40
0
 40
0
 40
0
 40
1
 40
1
 40
1
 40
1
 10
444.791028
 20
204.337708
 30
0.0
 10
445.990472
 20
204.337708
 30
0.0
 10
446.960639
 20
203.367521
 30
0.0
 10
446.960639
 20
202.168125
 30
0.0
  0
SPLINE
  5
164
100
AcDbEntity
  8
0
 62
7
100
AcDbSpline
 70
8
 71
3
 72
8
 73
4
 74
0
 40
0
 40
0
 40
0
 40
0
 40
1
 40
1
 40
1
 40
1
 10
446.960639
 20
202.168125
 30
0.0
 10
446.960639
 20
200.968729
 30
0.0
 10
445.990444
 20
199.989722
 30
0.0
 10
444.791028
 20
199.989722
 30
0.0
  0
SPLINE
  5
165
100
AcDbEntity
  8
0
 62
7
100
AcDbSpline
 70
8
 71
3
 72
8
 73
4
 74
0
 40
0
 40
0
 40
0
 40
0
 40
1
 40
1
 40
1
 40
1
 10
444.791028
 20
199.989722
 30
0.0
 10
443.591668
 20
199.989722
 30
0.0
 10
442.621444
 20
200.968729
 30
0.0
 10
442.621472
 20
202.168125
 30
0.0
  0
SPLINE
  5
166
100
AcDbEntity
  8
0
 62
7
100
AcDbSpline
 70
8
 71
3
 72
8
 73
4
 74
0
 40
0
 40
0
 40
0
 40
0
 40
1
 40
1
 40
1
 40
1
 10
442.621472
 20
202.168125
 30
0.0
 10
442.621472
 20
203.367521
 30
0.0
 10
443.591640
 20
204.337708
 30
0.0
 10
444.791028
 20
204.337708
 30
0.0
  0
LWPOLYLINE
  5
167
100
AcDbEntity
  8
0
 62
7
100
AcDbPolyline
 90
2
 70
0
 10
437.294528
 20
204.743403
 30
0.0
 10
437.294528
 20
204.743403
 30
0.0
  0
SPLINE
  5
168
100
AcDbEntity
  8
0
 62
7
100
AcDbSpline
 70
8
 71
3
 72
8
 73
4
 74
0
 40
0
 40
0
 40
0
 40
0
 40
1
 40
1
 40
1
 40
1
 10
451.026389
 20
203.799722
 30
0.0
 10
451.927694
 20
203.799722
 30
0.0
 10
452.658000
 20
203.069427
 30
0.0
 10
452.657972
 20
202.168125
 30
0.0
  0
SPLINE
  5
169
100
AcDbEntity
  8
0
 62
7
100
AcDbSpline
 70
8
 71
3
 72
8
 73
4
 74
0
 40
0
 40
0
 40
0
 40
0
 40
1
 40
1
 40
1
 40
1
 10
452.657972
 20
202.168125
 30
0.0
 10
452.657972
 20
201.266823
 30
0.0
 10
451.927694
 20
200.536528
 30
0.0
 10
451.026389
 20
200.536528
 30
0.0
  0
SPLINE
  5
16a
100
AcDbEntity
  8
0
 62
7
100
AcDbSpline
 70
8
 71
3
 72
8
 73
4
 74
0
 40
0
 40
0
 40
0
 40
0
 40
1
 40
1
 40
1
 40
1
 10
451.026389
 20
200.536528
 30
0.0
 10
450.125084
 20
200.536528
 30
0.0
 10
449.394778
 20
201.266823
 30
0.0
 10
449.394806
 20
202.168125
 30
0.0
  0
SPLINE
  5
16b
100
AcDbEntity
  8
0
 62
7
100
AcDbSpline
 70
8
 71
3
 72
8
 73
4
 74
0
 40
0
 40
0
 40
0
 40
0
 40
1
 40
1
 40
1
 40
1
 10
449.394806
 20
202.168125
 30
0.0
 10
449.394806
 20
203.069427
 30
0.0
 10
450.125084
 20
203.799722
 30
0.0
 10
451.026389
 20
203.799722
 30
0.0
  0
LWPOLYLINE
  5
16c
100
AcDbEntity
  8
0
 62
7
100
AcDbPolyline
 90
2
 70
0
 10
444.791028
 20
204.337708
 30
0.0
 10
444.791028
 20
204.337708
 30
0.0
  0
LWPOLYLINE
  5
16d
100
AcDbEntity
  8
0
 62
7
100
AcDbPolyline
 90
2
 70
0
 10
451.026389
 20
203.799722
 30
0.0
 10
451.026389
 20
203.799722
 30
0.0
  0
ENDSEC
  0
SECTION
  2
OBJECTS
  0
DICTIONARY
  5
C
330
0
100
AcDbDictionary
  3
ACAD_GROUP
350
D
  3
ACAD_MLINESTYLE
350
17
  0
DICTIONARY
  5
D
330
C
100
AcDbDictionary
  0
DICTIONARY
  5
1A
330
C
100
AcDbDictionary
  0
DICTIONARY
  5
17
330
C
100
AcDbDictionary
  3
STANDARD
350
18
  0
DICTIONARY
  5
19
330
C
100
AcDbDictionary
  0
ENDSEC
  0
EOF
